solid OpenSCAD_Model
  facet normal -1 0 0
    outer loop
      vertex 0 0 0
      vertex 0 83.575 18.4
      vertex 0 83.575 0
    endloop
  endfacet
  facet normal -1 -0 0
    outer loop
      vertex 0 83.575 18.4
      vertex 0 0 0
      vertex 0 0 18.4
    endloop
  endfacet
  facet normal 0 0 1
    outer loop
      vertex 38.575 83.575 18.4
      vertex 36.075 81.075 18.4
      vertex 38.575 0 18.4
    endloop
  endfacet
  facet normal 0 0 1
    outer loop
      vertex 38.575 83.575 18.4
      vertex 2.5 81.075 18.4
      vertex 36.075 81.075 18.4
    endloop
  endfacet
  facet normal 0 0 1
    outer loop
      vertex 2.5 81.075 18.4
      vertex 0 83.575 18.4
      vertex 2.5 2.5 18.4
    endloop
  endfacet
  facet normal -0 0 1
    outer loop
      vertex 0 83.575 18.4
      vertex 2.5 81.075 18.4
      vertex 38.575 83.575 18.4
    endloop
  endfacet
  facet normal -0 0 1
    outer loop
      vertex 36.075 2.5 18.4
      vertex 38.575 0 18.4
      vertex 36.075 81.075 18.4
    endloop
  endfacet
  facet normal -0 0 1
    outer loop
      vertex 2.5 2.5 18.4
      vertex 38.575 0 18.4
      vertex 36.075 2.5 18.4
    endloop
  endfacet
  facet normal 0 0 1
    outer loop
      vertex 2.5 2.5 18.4
      vertex 0 0 18.4
      vertex 38.575 0 18.4
    endloop
  endfacet
  facet normal 0 0 1
    outer loop
      vertex 0 0 18.4
      vertex 2.5 2.5 18.4
      vertex 0 83.575 18.4
    endloop
  endfacet
  facet normal 1 -0 0
    outer loop
      vertex 38.575 0 18.4
      vertex 38.575 83.575 0
      vertex 38.575 83.575 18.4
    endloop
  endfacet
  facet normal 1 0 0
    outer loop
      vertex 38.575 83.575 0
      vertex 38.575 0 18.4
      vertex 38.575 0 0
    endloop
  endfacet
  facet normal 0 0 -1
    outer loop
      vertex 26.7483 65.2256 0
      vertex 38.575 83.575 0
      vertex 38.575 0 0
    endloop
  endfacet
  facet normal 0 0 -1
    outer loop
      vertex 38.575 83.575 0
      vertex 27.3844 67.0433 0
      vertex 27.6 68.957 0
    endloop
  endfacet
  facet normal 0 0 -1
    outer loop
      vertex 38.575 83.575 0
      vertex 26.7483 65.2256 0
      vertex 27.3844 67.0433 0
    endloop
  endfacet
  facet normal 0 0 -1
    outer loop
      vertex 38.575 0 0
      vertex 25.7238 63.595 0
      vertex 26.7483 65.2256 0
    endloop
  endfacet
  facet normal 0 0 -1
    outer loop
      vertex 38.575 0 0
      vertex 24.362 62.2332 0
      vertex 25.7238 63.595 0
    endloop
  endfacet
  facet normal 0 0 -1
    outer loop
      vertex 38.575 0 0
      vertex 22.7314 61.2087 0
      vertex 24.362 62.2332 0
    endloop
  endfacet
  facet normal 0 0 -1
    outer loop
      vertex 38.575 0 0
      vertex 20.9137 60.5726 0
      vertex 22.7314 61.2087 0
    endloop
  endfacet
  facet normal 0 0 -1
    outer loop
      vertex 38.575 0 0
      vertex 19 60.357 0
      vertex 20.9137 60.5726 0
    endloop
  endfacet
  facet normal 0 0 -1
    outer loop
      vertex 0 0 0
      vertex 19 60.357 0
      vertex 38.575 0 0
    endloop
  endfacet
  facet normal -0 0 -1
    outer loop
      vertex 19 60.357 0
      vertex 0 0 0
      vertex 17.0863 60.5726 0
    endloop
  endfacet
  facet normal -0 0 -1
    outer loop
      vertex 17.0863 60.5726 0
      vertex 0 0 0
      vertex 15.2686 61.2087 0
    endloop
  endfacet
  facet normal -0 0 -1
    outer loop
      vertex 15.2686 61.2087 0
      vertex 0 0 0
      vertex 13.638 62.2332 0
    endloop
  endfacet
  facet normal -0 0 -1
    outer loop
      vertex 13.638 62.2332 0
      vertex 0 0 0
      vertex 12.2762 63.595 0
    endloop
  endfacet
  facet normal 0 0 -1
    outer loop
      vertex 11.2517 65.2256 0
      vertex 0 83.575 0
      vertex 10.6156 67.0433 0
    endloop
  endfacet
  facet normal 0 0 -1
    outer loop
      vertex 0 83.575 0
      vertex 11.2517 65.2256 0
      vertex 0 0 0
    endloop
  endfacet
  facet normal -0 0 -1
    outer loop
      vertex 12.2762 63.595 0
      vertex 0 0 0
      vertex 11.2517 65.2256 0
    endloop
  endfacet
  facet normal 0 0 -1
    outer loop
      vertex 27.3844 70.8707 0
      vertex 38.575 83.575 0
      vertex 27.6 68.957 0
    endloop
  endfacet
  facet normal 0 0 -1
    outer loop
      vertex 26.7483 72.6884 0
      vertex 38.575 83.575 0
      vertex 27.3844 70.8707 0
    endloop
  endfacet
  facet normal 0 0 -1
    outer loop
      vertex 25.7238 74.319 0
      vertex 38.575 83.575 0
      vertex 26.7483 72.6884 0
    endloop
  endfacet
  facet normal 0 0 -1
    outer loop
      vertex 24.362 75.6807 0
      vertex 38.575 83.575 0
      vertex 25.7238 74.319 0
    endloop
  endfacet
  facet normal 0 0 -1
    outer loop
      vertex 22.7314 76.7053 0
      vertex 38.575 83.575 0
      vertex 24.362 75.6807 0
    endloop
  endfacet
  facet normal 0 0 -1
    outer loop
      vertex 20.9137 77.3414 0
      vertex 38.575 83.575 0
      vertex 22.7314 76.7053 0
    endloop
  endfacet
  facet normal 0 0 -1
    outer loop
      vertex 19 77.557 0
      vertex 38.575 83.575 0
      vertex 20.9137 77.3414 0
    endloop
  endfacet
  facet normal 0 0 -1
    outer loop
      vertex 0 83.575 0
      vertex 19 77.557 0
      vertex 17.0863 77.3414 0
    endloop
  endfacet
  facet normal 0 0 -1
    outer loop
      vertex 10.6156 67.0433 0
      vertex 0 83.575 0
      vertex 10.4 68.957 0
    endloop
  endfacet
  facet normal 0 0 -1
    outer loop
      vertex 19 77.557 0
      vertex 0 83.575 0
      vertex 38.575 83.575 0
    endloop
  endfacet
  facet normal 0 0 -1
    outer loop
      vertex 15.2686 76.7053 0
      vertex 0 83.575 0
      vertex 17.0863 77.3414 0
    endloop
  endfacet
  facet normal 0 0 -1
    outer loop
      vertex 13.638 75.6807 0
      vertex 0 83.575 0
      vertex 15.2686 76.7053 0
    endloop
  endfacet
  facet normal 0 0 -1
    outer loop
      vertex 12.2762 74.319 0
      vertex 0 83.575 0
      vertex 13.638 75.6807 0
    endloop
  endfacet
  facet normal 0 0 -1
    outer loop
      vertex 11.2517 72.6884 0
      vertex 0 83.575 0
      vertex 12.2762 74.319 0
    endloop
  endfacet
  facet normal 0 0 -1
    outer loop
      vertex 10.6156 70.8707 0
      vertex 0 83.575 0
      vertex 11.2517 72.6884 0
    endloop
  endfacet
  facet normal 0 0 -1
    outer loop
      vertex 10.4 68.957 0
      vertex 0 83.575 0
      vertex 10.6156 70.8707 0
    endloop
  endfacet
  facet normal 0 -1 0
    outer loop
      vertex 0 0 18.4
      vertex 19.7732 0 15.6818
      vertex 38.575 0 18.4
    endloop
  endfacet
  facet normal 0 -1 0
    outer loop
      vertex 0 0 18.4
      vertex 17.8411 0 15.537
      vertex 19.7732 0 15.6818
    endloop
  endfacet
  facet normal 0 -1 0
    outer loop
      vertex 0 0 18.4
      vertex 16.0375 0 14.8292
      vertex 17.8411 0 15.537
    endloop
  endfacet
  facet normal 0 -1 0
    outer loop
      vertex 0 0 18.4
      vertex 14.5227 0 13.6211
      vertex 16.0375 0 14.8292
    endloop
  endfacet
  facet normal 0 -1 0
    outer loop
      vertex 0 0 18.4
      vertex 13.4312 0 12.0202
      vertex 14.5227 0 13.6211
    endloop
  endfacet
  facet normal 0 -1 0
    outer loop
      vertex 0 0 18.4
      vertex 12.8601 0 10.1688
      vertex 13.4312 0 12.0202
    endloop
  endfacet
  facet normal 0 -1 0
    outer loop
      vertex 0 0 18.4
      vertex 12.8601 0 8.23123
      vertex 12.8601 0 10.1688
    endloop
  endfacet
  facet normal 0 -1 0
    outer loop
      vertex 0 0 0
      vertex 12.8601 0 8.23123
      vertex 0 0 18.4
    endloop
  endfacet
  facet normal 0 -1 -0
    outer loop
      vertex 12.8601 0 8.23123
      vertex 0 0 0
      vertex 13.4312 0 6.37976
    endloop
  endfacet
  facet normal 0 -1 -0
    outer loop
      vertex 17.8411 0 2.86297
      vertex 0 0 0
      vertex 19.7732 0 2.71817
    endloop
  endfacet
  facet normal 0 -1 -0
    outer loop
      vertex 16.0375 0 3.57083
      vertex 0 0 0
      vertex 17.8411 0 2.86297
    endloop
  endfacet
  facet normal 0 -1 -0
    outer loop
      vertex 14.5227 0 4.77888
      vertex 0 0 0
      vertex 16.0375 0 3.57083
    endloop
  endfacet
  facet normal 0 -1 -0
    outer loop
      vertex 13.4312 0 6.37976
      vertex 0 0 0
      vertex 14.5227 0 4.77888
    endloop
  endfacet
  facet normal 0 -1 0
    outer loop
      vertex 21.6622 0 15.2507
      vertex 38.575 0 18.4
      vertex 19.7732 0 15.6818
    endloop
  endfacet
  facet normal 0 -1 0
    outer loop
      vertex 23.3402 0 14.2819
      vertex 38.575 0 18.4
      vertex 21.6622 0 15.2507
    endloop
  endfacet
  facet normal 0 -1 0
    outer loop
      vertex 24.6581 0 12.8616
      vertex 38.575 0 18.4
      vertex 23.3402 0 14.2819
    endloop
  endfacet
  facet normal 0 -1 0
    outer loop
      vertex 25.4987 0 11.1159
      vertex 38.575 0 18.4
      vertex 24.6581 0 12.8616
    endloop
  endfacet
  facet normal 0 -1 0
    outer loop
      vertex 25.7875 0 9.2
      vertex 38.575 0 18.4
      vertex 25.4987 0 11.1159
    endloop
  endfacet
  facet normal 0 -1 0
    outer loop
      vertex 38.575 0 0
      vertex 25.7875 0 9.2
      vertex 25.4987 0 7.28409
    endloop
  endfacet
  facet normal 0 -1 0
    outer loop
      vertex 38.575 0 0
      vertex 25.4987 0 7.28409
      vertex 24.6581 0 5.53842
    endloop
  endfacet
  facet normal 0 -1 0
    outer loop
      vertex 38.575 0 0
      vertex 24.6581 0 5.53842
      vertex 23.3402 0 4.11809
    endloop
  endfacet
  facet normal 0 -1 0
    outer loop
      vertex 25.7875 0 9.2
      vertex 38.575 0 0
      vertex 38.575 0 18.4
    endloop
  endfacet
  facet normal 0 -1 0
    outer loop
      vertex 21.6622 0 3.14932
      vertex 38.575 0 0
      vertex 23.3402 0 4.11809
    endloop
  endfacet
  facet normal 0 -1 0
    outer loop
      vertex 19.7732 0 2.71817
      vertex 38.575 0 0
      vertex 21.6622 0 3.14932
    endloop
  endfacet
  facet normal 0 -1 0
    outer loop
      vertex 38.575 0 0
      vertex 19.7732 0 2.71817
      vertex 0 0 0
    endloop
  endfacet
  facet normal 0 1 -0
    outer loop
      vertex 38.575 83.575 0
      vertex 0 83.575 18.4
      vertex 38.575 83.575 18.4
    endloop
  endfacet
  facet normal 0 1 0
    outer loop
      vertex 0 83.575 18.4
      vertex 38.575 83.575 0
      vertex 0 83.575 0
    endloop
  endfacet
  facet normal 1 -0 0
    outer loop
      vertex 5 5 17.65
      vertex 5 80.575 15.4
      vertex 5 80.575 17.65
    endloop
  endfacet
  facet normal 1 0 0
    outer loop
      vertex 5 80.575 15.4
      vertex 5 5 17.65
      vertex 5 5 15.4
    endloop
  endfacet
  facet normal -1 0 0
    outer loop
      vertex 33.575 5 15.4
      vertex 33.575 80.575 17.65
      vertex 33.575 80.575 15.4
    endloop
  endfacet
  facet normal -1 -0 0
    outer loop
      vertex 33.575 80.575 17.65
      vertex 33.575 5 15.4
      vertex 33.575 5 17.65
    endloop
  endfacet
  facet normal 0 -1 0
    outer loop
      vertex 3 80.575 3
      vertex 5 80.575 15.4
      vertex 3 80.575 15.4
    endloop
  endfacet
  facet normal 0 -1 -0
    outer loop
      vertex 5 80.575 15.4
      vertex 3 80.575 3
      vertex 33.575 80.575 15.4
    endloop
  endfacet
  facet normal 0 -1 0
    outer loop
      vertex 35.575 80.575 3
      vertex 33.575 80.575 15.4
      vertex 3 80.575 3
    endloop
  endfacet
  facet normal 0 -1 0
    outer loop
      vertex 33.575 80.575 15.4
      vertex 35.575 80.575 3
      vertex 35.575 80.575 15.4
    endloop
  endfacet
  facet normal 0 -1 0
    outer loop
      vertex 5 80.575 15.4
      vertex 33.575 80.575 17.65
      vertex 5 80.575 17.65
    endloop
  endfacet
  facet normal 0 -1 -0
    outer loop
      vertex 33.575 80.575 17.65
      vertex 5 80.575 15.4
      vertex 33.575 80.575 15.4
    endloop
  endfacet
  facet normal 0 0 1
    outer loop
      vertex 35.575 3 3
      vertex 20.9137 60.5726 3
      vertex 21.008 4 3
    endloop
  endfacet
  facet normal -0 0 1
    outer loop
      vertex 19 60.357 3
      vertex 21.008 4 3
      vertex 20.9137 60.5726 3
    endloop
  endfacet
  facet normal 0 0 1
    outer loop
      vertex 19 60.357 3
      vertex 17.492 4 3
      vertex 21.008 4 3
    endloop
  endfacet
  facet normal 0 0 1
    outer loop
      vertex 17.0863 60.5726 3
      vertex 17.492 4 3
      vertex 19 60.357 3
    endloop
  endfacet
  facet normal 0 0 1
    outer loop
      vertex 3 3 3
      vertex 17.492 4 3
      vertex 17.0863 60.5726 3
    endloop
  endfacet
  facet normal 0 0 1
    outer loop
      vertex 3 3 3
      vertex 17.0863 60.5726 3
      vertex 15.2686 61.2087 3
    endloop
  endfacet
  facet normal 0 0 1
    outer loop
      vertex 3 3 3
      vertex 15.2686 61.2087 3
      vertex 13.638 62.2332 3
    endloop
  endfacet
  facet normal 0 0 1
    outer loop
      vertex 3 3 3
      vertex 13.638 62.2332 3
      vertex 12.2762 63.595 3
    endloop
  endfacet
  facet normal 0 0 1
    outer loop
      vertex 3 3 3
      vertex 12.2762 63.595 3
      vertex 11.2517 65.2256 3
    endloop
  endfacet
  facet normal 0 0 1
    outer loop
      vertex 3 80.575 3
      vertex 11.2517 65.2256 3
      vertex 10.6156 67.0433 3
    endloop
  endfacet
  facet normal 0 0 1
    outer loop
      vertex 3 80.575 3
      vertex 10.6156 67.0433 3
      vertex 10.4 68.957 3
    endloop
  endfacet
  facet normal 0 0 1
    outer loop
      vertex 11.2517 65.2256 3
      vertex 3 80.575 3
      vertex 3 3 3
    endloop
  endfacet
  facet normal 0 0 1
    outer loop
      vertex 17.492 4 3
      vertex 3 3 3
      vertex 17.492 3 3
    endloop
  endfacet
  facet normal 0 0 1
    outer loop
      vertex 27.3844 67.0433 3
      vertex 35.575 80.575 3
      vertex 27.6 68.957 3
    endloop
  endfacet
  facet normal 0 0 1
    outer loop
      vertex 35.575 80.575 3
      vertex 27.3844 70.8707 3
      vertex 27.6 68.957 3
    endloop
  endfacet
  facet normal 0 0 1
    outer loop
      vertex 35.575 80.575 3
      vertex 26.7483 72.6884 3
      vertex 27.3844 70.8707 3
    endloop
  endfacet
  facet normal 0 0 1
    outer loop
      vertex 35.575 80.575 3
      vertex 25.7238 74.319 3
      vertex 26.7483 72.6884 3
    endloop
  endfacet
  facet normal 0 0 1
    outer loop
      vertex 35.575 80.575 3
      vertex 24.362 75.6807 3
      vertex 25.7238 74.319 3
    endloop
  endfacet
  facet normal 0 0 1
    outer loop
      vertex 35.575 80.575 3
      vertex 22.7314 76.7053 3
      vertex 24.362 75.6807 3
    endloop
  endfacet
  facet normal 0 0 1
    outer loop
      vertex 35.575 80.575 3
      vertex 20.9137 77.3414 3
      vertex 22.7314 76.7053 3
    endloop
  endfacet
  facet normal 0 0 1
    outer loop
      vertex 35.575 80.575 3
      vertex 19 77.557 3
      vertex 20.9137 77.3414 3
    endloop
  endfacet
  facet normal -0 0 1
    outer loop
      vertex 3 80.575 3
      vertex 19 77.557 3
      vertex 35.575 80.575 3
    endloop
  endfacet
  facet normal 0 0 1
    outer loop
      vertex 10.6156 70.8707 3
      vertex 3 80.575 3
      vertex 10.4 68.957 3
    endloop
  endfacet
  facet normal 0 0 1
    outer loop
      vertex 11.2517 72.6884 3
      vertex 3 80.575 3
      vertex 10.6156 70.8707 3
    endloop
  endfacet
  facet normal 0 0 1
    outer loop
      vertex 12.2762 74.319 3
      vertex 3 80.575 3
      vertex 11.2517 72.6884 3
    endloop
  endfacet
  facet normal 0 0 1
    outer loop
      vertex 13.638 75.6807 3
      vertex 3 80.575 3
      vertex 12.2762 74.319 3
    endloop
  endfacet
  facet normal 0 0 1
    outer loop
      vertex 15.2686 76.7053 3
      vertex 3 80.575 3
      vertex 13.638 75.6807 3
    endloop
  endfacet
  facet normal 0 0 1
    outer loop
      vertex 17.0863 77.3414 3
      vertex 3 80.575 3
      vertex 15.2686 76.7053 3
    endloop
  endfacet
  facet normal 0 0 1
    outer loop
      vertex 19 77.557 3
      vertex 3 80.575 3
      vertex 17.0863 77.3414 3
    endloop
  endfacet
  facet normal 0 0 1
    outer loop
      vertex 26.7483 65.2256 3
      vertex 35.575 80.575 3
      vertex 27.3844 67.0433 3
    endloop
  endfacet
  facet normal 0 0 1
    outer loop
      vertex 35.575 80.575 3
      vertex 26.7483 65.2256 3
      vertex 35.575 3 3
    endloop
  endfacet
  facet normal -0 0 1
    outer loop
      vertex 25.7238 63.595 3
      vertex 35.575 3 3
      vertex 26.7483 65.2256 3
    endloop
  endfacet
  facet normal -0 0 1
    outer loop
      vertex 24.362 62.2332 3
      vertex 35.575 3 3
      vertex 25.7238 63.595 3
    endloop
  endfacet
  facet normal -0 0 1
    outer loop
      vertex 22.7314 61.2087 3
      vertex 35.575 3 3
      vertex 24.362 62.2332 3
    endloop
  endfacet
  facet normal -0 0 1
    outer loop
      vertex 20.9137 60.5726 3
      vertex 35.575 3 3
      vertex 22.7314 61.2087 3
    endloop
  endfacet
  facet normal 0 0 1
    outer loop
      vertex 35.575 3 3
      vertex 21.008 4 3
      vertex 21.008 3 3
    endloop
  endfacet
  facet normal 0 1 -0
    outer loop
      vertex 33.575 5 15.4
      vertex 5 5 17.65
      vertex 33.575 5 17.65
    endloop
  endfacet
  facet normal 0 1 0
    outer loop
      vertex 5 5 17.65
      vertex 33.575 5 15.4
      vertex 5 5 15.4
    endloop
  endfacet
  facet normal 1 -0 0
    outer loop
      vertex 2.5 2.5 18.4
      vertex 2.5 81.075 17.65
      vertex 2.5 81.075 18.4
    endloop
  endfacet
  facet normal 1 0 0
    outer loop
      vertex 2.5 81.075 17.65
      vertex 2.5 2.5 18.4
      vertex 2.5 2.5 17.65
    endloop
  endfacet
  facet normal -1 0 0
    outer loop
      vertex 36.075 2.5 17.65
      vertex 36.075 81.075 18.4
      vertex 36.075 81.075 17.65
    endloop
  endfacet
  facet normal -1 -0 0
    outer loop
      vertex 36.075 81.075 18.4
      vertex 36.075 2.5 17.65
      vertex 36.075 2.5 18.4
    endloop
  endfacet
  facet normal 0 0 1
    outer loop
      vertex 33.575 5 17.65
      vertex 36.075 81.075 17.65
      vertex 33.575 80.575 17.65
    endloop
  endfacet
  facet normal 0 0 1
    outer loop
      vertex 36.075 81.075 17.65
      vertex 5 80.575 17.65
      vertex 33.575 80.575 17.65
    endloop
  endfacet
  facet normal 0 0 1
    outer loop
      vertex 5 80.575 17.65
      vertex 2.5 81.075 17.65
      vertex 5 5 17.65
    endloop
  endfacet
  facet normal -0 0 1
    outer loop
      vertex 2.5 81.075 17.65
      vertex 5 80.575 17.65
      vertex 36.075 81.075 17.65
    endloop
  endfacet
  facet normal 0 0 1
    outer loop
      vertex 36.075 81.075 17.65
      vertex 33.575 5 17.65
      vertex 36.075 2.5 17.65
    endloop
  endfacet
  facet normal -0 0 1
    outer loop
      vertex 5 5 17.65
      vertex 36.075 2.5 17.65
      vertex 33.575 5 17.65
    endloop
  endfacet
  facet normal 0 0 1
    outer loop
      vertex 5 5 17.65
      vertex 2.5 2.5 17.65
      vertex 36.075 2.5 17.65
    endloop
  endfacet
  facet normal 0 0 1
    outer loop
      vertex 2.5 2.5 17.65
      vertex 5 5 17.65
      vertex 2.5 81.075 17.65
    endloop
  endfacet
  facet normal 0 1 -0
    outer loop
      vertex 36.075 2.5 17.65
      vertex 2.5 2.5 18.4
      vertex 36.075 2.5 18.4
    endloop
  endfacet
  facet normal 0 1 0
    outer loop
      vertex 2.5 2.5 18.4
      vertex 36.075 2.5 17.65
      vertex 2.5 2.5 17.65
    endloop
  endfacet
  facet normal 0 -1 0
    outer loop
      vertex 2.5 81.075 17.65
      vertex 36.075 81.075 18.4
      vertex 2.5 81.075 18.4
    endloop
  endfacet
  facet normal 0 -1 -0
    outer loop
      vertex 36.075 81.075 18.4
      vertex 2.5 81.075 17.65
      vertex 36.075 81.075 17.65
    endloop
  endfacet
  facet normal 1 -0 0
    outer loop
      vertex 3 3 15.4
      vertex 3 80.575 3
      vertex 3 80.575 15.4
    endloop
  endfacet
  facet normal 1 0 0
    outer loop
      vertex 3 80.575 3
      vertex 3 3 15.4
      vertex 3 3 3
    endloop
  endfacet
  facet normal 0 0 -1
    outer loop
      vertex 17.492 3 15.4
      vertex 5 5 15.4
      vertex 17.492 4 15.4
    endloop
  endfacet
  facet normal 0 0 -1
    outer loop
      vertex 3 3 15.4
      vertex 5 5 15.4
      vertex 17.492 3 15.4
    endloop
  endfacet
  facet normal 0 0 -1
    outer loop
      vertex 3 80.575 15.4
      vertex 5 5 15.4
      vertex 3 3 15.4
    endloop
  endfacet
  facet normal 0 0 -1
    outer loop
      vertex 5 5 15.4
      vertex 3 80.575 15.4
      vertex 5 80.575 15.4
    endloop
  endfacet
  facet normal 0 0 -1
    outer loop
      vertex 35.575 3 15.4
      vertex 33.575 5 15.4
      vertex 35.575 80.575 15.4
    endloop
  endfacet
  facet normal 0 0 -1
    outer loop
      vertex 21.008 3 15.4
      vertex 33.575 5 15.4
      vertex 35.575 3 15.4
    endloop
  endfacet
  facet normal 0 0 -1
    outer loop
      vertex 21.008 4 15.4
      vertex 33.575 5 15.4
      vertex 21.008 3 15.4
    endloop
  endfacet
  facet normal 0 0 -1
    outer loop
      vertex 20.0347 4 15.4
      vertex 33.575 5 15.4
      vertex 21.008 4 15.4
    endloop
  endfacet
  facet normal 0 0 -1
    outer loop
      vertex 19.4198 4 15.4
      vertex 33.575 5 15.4
      vertex 20.0347 4 15.4
    endloop
  endfacet
  facet normal 0 0 -1
    outer loop
      vertex 17.714 4 15.4
      vertex 33.575 5 15.4
      vertex 19.4198 4 15.4
    endloop
  endfacet
  facet normal 0 0 -1
    outer loop
      vertex 5 5 15.4
      vertex 17.714 4 15.4
      vertex 17.492 4 15.4
    endloop
  endfacet
  facet normal 0 0 -1
    outer loop
      vertex 17.714 4 15.4
      vertex 5 5 15.4
      vertex 33.575 5 15.4
    endloop
  endfacet
  facet normal -0 0 -1
    outer loop
      vertex 35.575 80.575 15.4
      vertex 33.575 5 15.4
      vertex 33.575 80.575 15.4
    endloop
  endfacet
  facet normal -1 0 0
    outer loop
      vertex 35.575 3 3
      vertex 35.575 80.575 15.4
      vertex 35.575 80.575 3
    endloop
  endfacet
  facet normal -1 -0 0
    outer loop
      vertex 35.575 80.575 15.4
      vertex 35.575 3 3
      vertex 35.575 3 15.4
    endloop
  endfacet
  facet normal 0 1 -0
    outer loop
      vertex 16.0375 3 14.8292
      vertex 3 3 15.4
      vertex 17.492 3 15.4
    endloop
  endfacet
  facet normal 0 1 -0
    outer loop
      vertex 14.5227 3 13.6211
      vertex 3 3 15.4
      vertex 16.0375 3 14.8292
    endloop
  endfacet
  facet normal 0 1 -0
    outer loop
      vertex 13.4312 3 12.0202
      vertex 3 3 15.4
      vertex 14.5227 3 13.6211
    endloop
  endfacet
  facet normal 0 1 -0
    outer loop
      vertex 12.8601 3 10.1688
      vertex 3 3 15.4
      vertex 13.4312 3 12.0202
    endloop
  endfacet
  facet normal 0 1 -0
    outer loop
      vertex 12.8601 3 8.23123
      vertex 3 3 15.4
      vertex 12.8601 3 10.1688
    endloop
  endfacet
  facet normal 0 1 0
    outer loop
      vertex 3 3 3
      vertex 12.8601 3 8.23123
      vertex 13.4312 3 6.37976
    endloop
  endfacet
  facet normal 0 1 0
    outer loop
      vertex 3 3 3
      vertex 13.4312 3 6.37976
      vertex 14.5227 3 4.77888
    endloop
  endfacet
  facet normal 0 1 0
    outer loop
      vertex 12.8601 3 8.23123
      vertex 3 3 3
      vertex 3 3 15.4
    endloop
  endfacet
  facet normal 0 1 0
    outer loop
      vertex 16.0375 3 3.57083
      vertex 3 3 3
      vertex 14.5227 3 4.77888
    endloop
  endfacet
  facet normal 0 1 0
    outer loop
      vertex 3 3 3
      vertex 16.0375 3 3.57083
      vertex 17.492 3 3
    endloop
  endfacet
  facet normal 0 1 0
    outer loop
      vertex 35.575 3 15.4
      vertex 21.6622 3 15.2507
      vertex 21.008 3 15.4
    endloop
  endfacet
  facet normal 0 1 0
    outer loop
      vertex 35.575 3 15.4
      vertex 23.3402 3 14.2819
      vertex 21.6622 3 15.2507
    endloop
  endfacet
  facet normal 0 1 0
    outer loop
      vertex 35.575 3 15.4
      vertex 24.6581 3 12.8616
      vertex 23.3402 3 14.2819
    endloop
  endfacet
  facet normal 0 1 0
    outer loop
      vertex 35.575 3 15.4
      vertex 25.4987 3 11.1159
      vertex 24.6581 3 12.8616
    endloop
  endfacet
  facet normal 0 1 0
    outer loop
      vertex 35.575 3 15.4
      vertex 25.7875 3 9.2
      vertex 25.4987 3 11.1159
    endloop
  endfacet
  facet normal 0 1 -0
    outer loop
      vertex 35.575 3 3
      vertex 25.7875 3 9.2
      vertex 35.575 3 15.4
    endloop
  endfacet
  facet normal 0 1 0
    outer loop
      vertex 25.7875 3 9.2
      vertex 35.575 3 3
      vertex 25.4987 3 7.28409
    endloop
  endfacet
  facet normal 0 1 0
    outer loop
      vertex 25.4987 3 7.28409
      vertex 35.575 3 3
      vertex 24.6581 3 5.53842
    endloop
  endfacet
  facet normal 0 1 0
    outer loop
      vertex 24.6581 3 5.53842
      vertex 35.575 3 3
      vertex 23.3402 3 4.11809
    endloop
  endfacet
  facet normal 0 1 0
    outer loop
      vertex 35.575 3 3
      vertex 21.6622 3 3.14932
      vertex 23.3402 3 4.11809
    endloop
  endfacet
  facet normal 0 1 0
    outer loop
      vertex 21.6622 3 3.14932
      vertex 35.575 3 3
      vertex 21.008 3 3
    endloop
  endfacet
  facet normal -0.993712 -0.111963 0
    outer loop
      vertex 27.6 68.957 0
      vertex 27.3844 70.8707 3
      vertex 27.3844 70.8707 0
    endloop
  endfacet
  facet normal -0.993712 -0.111963 0
    outer loop
      vertex 27.3844 70.8707 3
      vertex 27.6 68.957 0
      vertex 27.6 68.957 3
    endloop
  endfacet
  facet normal 0.993712 -0.111964 0
    outer loop
      vertex 10.4 68.957 3
      vertex 10.6156 70.8707 0
      vertex 10.6156 70.8707 3
    endloop
  endfacet
  facet normal 0.993712 -0.111964 0
    outer loop
      vertex 10.6156 70.8707 0
      vertex 10.4 68.957 3
      vertex 10.4 68.957 0
    endloop
  endfacet
  facet normal -0.111966 -0.993712 0
    outer loop
      vertex 19 77.557 0
      vertex 20.9137 77.3414 3
      vertex 19 77.557 3
    endloop
  endfacet
  facet normal -0.111966 -0.993712 -0
    outer loop
      vertex 20.9137 77.3414 3
      vertex 19 77.557 0
      vertex 20.9137 77.3414 0
    endloop
  endfacet
  facet normal -0.707105 -0.707109 0
    outer loop
      vertex 24.362 75.6807 0
      vertex 25.7238 74.319 3
      vertex 24.362 75.6807 3
    endloop
  endfacet
  facet normal -0.707105 -0.707109 -0
    outer loop
      vertex 25.7238 74.319 3
      vertex 24.362 75.6807 0
      vertex 25.7238 74.319 0
    endloop
  endfacet
  facet normal -0.943883 -0.330279 0
    outer loop
      vertex 27.3844 70.8707 0
      vertex 26.7483 72.6884 3
      vertex 26.7483 72.6884 0
    endloop
  endfacet
  facet normal -0.943883 -0.330279 0
    outer loop
      vertex 26.7483 72.6884 3
      vertex 27.3844 70.8707 0
      vertex 27.3844 70.8707 3
    endloop
  endfacet
  facet normal -0.532032 -0.846724 0
    outer loop
      vertex 22.7314 76.7053 0
      vertex 24.362 75.6807 3
      vertex 22.7314 76.7053 3
    endloop
  endfacet
  facet normal -0.532032 -0.846724 -0
    outer loop
      vertex 24.362 75.6807 3
      vertex 22.7314 76.7053 0
      vertex 24.362 75.6807 0
    endloop
  endfacet
  facet normal 0.532032 -0.846724 0
    outer loop
      vertex 13.638 75.6807 0
      vertex 15.2686 76.7053 3
      vertex 13.638 75.6807 3
    endloop
  endfacet
  facet normal 0.532032 -0.846724 0
    outer loop
      vertex 15.2686 76.7053 3
      vertex 13.638 75.6807 0
      vertex 15.2686 76.7053 0
    endloop
  endfacet
  facet normal 0.330279 -0.943883 0
    outer loop
      vertex 15.2686 76.7053 0
      vertex 17.0863 77.3414 3
      vertex 15.2686 76.7053 3
    endloop
  endfacet
  facet normal 0.330279 -0.943883 0
    outer loop
      vertex 17.0863 77.3414 3
      vertex 15.2686 76.7053 0
      vertex 17.0863 77.3414 0
    endloop
  endfacet
  facet normal -0.707106 0.707108 0
    outer loop
      vertex 25.7238 63.595 0
      vertex 24.362 62.2332 3
      vertex 25.7238 63.595 3
    endloop
  endfacet
  facet normal -0.707106 0.707108 0
    outer loop
      vertex 24.362 62.2332 3
      vertex 25.7238 63.595 0
      vertex 24.362 62.2332 0
    endloop
  endfacet
  facet normal -0.846725 0.532031 0
    outer loop
      vertex 25.7238 63.595 0
      vertex 26.7483 65.2256 3
      vertex 26.7483 65.2256 0
    endloop
  endfacet
  facet normal -0.846725 0.532031 0
    outer loop
      vertex 26.7483 65.2256 3
      vertex 25.7238 63.595 0
      vertex 25.7238 63.595 3
    endloop
  endfacet
  facet normal -0.846725 -0.532031 0
    outer loop
      vertex 26.7483 72.6884 0
      vertex 25.7238 74.319 3
      vertex 25.7238 74.319 0
    endloop
  endfacet
  facet normal -0.846725 -0.532031 0
    outer loop
      vertex 25.7238 74.319 3
      vertex 26.7483 72.6884 0
      vertex 26.7483 72.6884 3
    endloop
  endfacet
  facet normal -0.330279 -0.943883 0
    outer loop
      vertex 20.9137 77.3414 0
      vertex 22.7314 76.7053 3
      vertex 20.9137 77.3414 3
    endloop
  endfacet
  facet normal -0.330279 -0.943883 -0
    outer loop
      vertex 22.7314 76.7053 3
      vertex 20.9137 77.3414 0
      vertex 22.7314 76.7053 0
    endloop
  endfacet
  facet normal 0.846725 -0.532031 0
    outer loop
      vertex 11.2517 72.6884 3
      vertex 12.2762 74.319 0
      vertex 12.2762 74.319 3
    endloop
  endfacet
  facet normal 0.846725 -0.532031 0
    outer loop
      vertex 12.2762 74.319 0
      vertex 11.2517 72.6884 3
      vertex 11.2517 72.6884 0
    endloop
  endfacet
  facet normal 0.707105 -0.707108 0
    outer loop
      vertex 12.2762 74.319 0
      vertex 13.638 75.6807 3
      vertex 12.2762 74.319 3
    endloop
  endfacet
  facet normal 0.707105 -0.707108 0
    outer loop
      vertex 13.638 75.6807 3
      vertex 12.2762 74.319 0
      vertex 13.638 75.6807 0
    endloop
  endfacet
  facet normal 0.943883 -0.330279 0
    outer loop
      vertex 10.6156 70.8707 3
      vertex 11.2517 72.6884 0
      vertex 11.2517 72.6884 3
    endloop
  endfacet
  facet normal 0.943883 -0.330279 0
    outer loop
      vertex 11.2517 72.6884 0
      vertex 10.6156 70.8707 3
      vertex 10.6156 70.8707 0
    endloop
  endfacet
  facet normal 0.111965 -0.993712 0
    outer loop
      vertex 17.0863 77.3414 0
      vertex 19 77.557 3
      vertex 17.0863 77.3414 3
    endloop
  endfacet
  facet normal 0.111965 -0.993712 0
    outer loop
      vertex 19 77.557 3
      vertex 17.0863 77.3414 0
      vertex 19 77.557 0
    endloop
  endfacet
  facet normal -0.993712 0.111963 0
    outer loop
      vertex 27.3844 67.0433 0
      vertex 27.6 68.957 3
      vertex 27.6 68.957 0
    endloop
  endfacet
  facet normal -0.993712 0.111963 0
    outer loop
      vertex 27.6 68.957 3
      vertex 27.3844 67.0433 0
      vertex 27.3844 67.0433 3
    endloop
  endfacet
  facet normal -0.111966 0.993712 0
    outer loop
      vertex 20.9137 60.5726 0
      vertex 19 60.357 3
      vertex 20.9137 60.5726 3
    endloop
  endfacet
  facet normal -0.111966 0.993712 0
    outer loop
      vertex 19 60.357 3
      vertex 20.9137 60.5726 0
      vertex 19 60.357 0
    endloop
  endfacet
  facet normal -0.532032 0.846724 0
    outer loop
      vertex 24.362 62.2332 0
      vertex 22.7314 61.2087 3
      vertex 24.362 62.2332 3
    endloop
  endfacet
  facet normal -0.532032 0.846724 0
    outer loop
      vertex 22.7314 61.2087 3
      vertex 24.362 62.2332 0
      vertex 22.7314 61.2087 0
    endloop
  endfacet
  facet normal 0.707106 0.707107 -0
    outer loop
      vertex 13.638 62.2332 0
      vertex 12.2762 63.595 3
      vertex 13.638 62.2332 3
    endloop
  endfacet
  facet normal 0.707106 0.707107 0
    outer loop
      vertex 12.2762 63.595 3
      vertex 13.638 62.2332 0
      vertex 12.2762 63.595 0
    endloop
  endfacet
  facet normal 0.330279 0.943883 -0
    outer loop
      vertex 17.0863 60.5726 0
      vertex 15.2686 61.2087 3
      vertex 17.0863 60.5726 3
    endloop
  endfacet
  facet normal 0.330279 0.943883 0
    outer loop
      vertex 15.2686 61.2087 3
      vertex 17.0863 60.5726 0
      vertex 15.2686 61.2087 0
    endloop
  endfacet
  facet normal 0.846725 0.532031 0
    outer loop
      vertex 12.2762 63.595 3
      vertex 11.2517 65.2256 0
      vertex 11.2517 65.2256 3
    endloop
  endfacet
  facet normal 0.846725 0.532031 0
    outer loop
      vertex 11.2517 65.2256 0
      vertex 12.2762 63.595 3
      vertex 12.2762 63.595 0
    endloop
  endfacet
  facet normal 0.993712 0.111964 0
    outer loop
      vertex 10.6156 67.0433 3
      vertex 10.4 68.957 0
      vertex 10.4 68.957 3
    endloop
  endfacet
  facet normal 0.993712 0.111964 0
    outer loop
      vertex 10.4 68.957 0
      vertex 10.6156 67.0433 3
      vertex 10.6156 67.0433 0
    endloop
  endfacet
  facet normal -0.330279 0.943883 0
    outer loop
      vertex 22.7314 61.2087 0
      vertex 20.9137 60.5726 3
      vertex 22.7314 61.2087 3
    endloop
  endfacet
  facet normal -0.330279 0.943883 0
    outer loop
      vertex 20.9137 60.5726 3
      vertex 22.7314 61.2087 0
      vertex 20.9137 60.5726 0
    endloop
  endfacet
  facet normal -0.943883 0.330279 0
    outer loop
      vertex 26.7483 65.2256 0
      vertex 27.3844 67.0433 3
      vertex 27.3844 67.0433 0
    endloop
  endfacet
  facet normal -0.943883 0.330279 0
    outer loop
      vertex 27.3844 67.0433 3
      vertex 26.7483 65.2256 0
      vertex 26.7483 65.2256 3
    endloop
  endfacet
  facet normal 0.532032 0.846724 -0
    outer loop
      vertex 15.2686 61.2087 0
      vertex 13.638 62.2332 3
      vertex 15.2686 61.2087 3
    endloop
  endfacet
  facet normal 0.532032 0.846724 0
    outer loop
      vertex 13.638 62.2332 3
      vertex 15.2686 61.2087 0
      vertex 13.638 62.2332 0
    endloop
  endfacet
  facet normal 0.111965 0.993712 -0
    outer loop
      vertex 19 60.357 0
      vertex 17.0863 60.5726 3
      vertex 19 60.357 3
    endloop
  endfacet
  facet normal 0.111965 0.993712 0
    outer loop
      vertex 17.0863 60.5726 3
      vertex 19 60.357 0
      vertex 17.0863 60.5726 0
    endloop
  endfacet
  facet normal 0.943883 0.330279 0
    outer loop
      vertex 11.2517 65.2256 3
      vertex 10.6156 67.0433 0
      vertex 10.6156 67.0433 3
    endloop
  endfacet
  facet normal 0.943883 0.330279 0
    outer loop
      vertex 10.6156 67.0433 0
      vertex 11.2517 65.2256 3
      vertex 11.2517 65.2256 0
    endloop
  endfacet
  facet normal -0.988831 0 0.149042
    outer loop
      vertex 25.4987 0 7.28409
      vertex 25.7875 3 9.2
      vertex 25.4987 3 7.28409
    endloop
  endfacet
  facet normal -0.988831 0 0.149042
    outer loop
      vertex 25.7875 3 9.2
      vertex 25.4987 0 7.28409
      vertex 25.7875 0 9.2
    endloop
  endfacet
  facet normal 0 -1 0
    outer loop
      vertex 20.0347 4 15.4
      vertex 19.7732 4 15.6818
      vertex 19.4198 4 15.4
    endloop
  endfacet
  facet normal 0.0747303 0 0.997204
    outer loop
      vertex 17.8411 4 2.86297
      vertex 19.7732 0 2.71817
      vertex 19.7732 4 2.71817
    endloop
  endfacet
  facet normal 0.0747303 0 0.997204
    outer loop
      vertex 19.7732 0 2.71817
      vertex 17.8411 4 2.86297
      vertex 17.8411 0 2.86297
    endloop
  endfacet
  facet normal 0 -1 0
    outer loop
      vertex 20.0347 4 15.4
      vertex 21.008 4 15.4
      vertex 19.7732 4 15.6818
    endloop
  endfacet
  facet normal -0.222521 0 -0.974928
    outer loop
      vertex 21.6622 0 15.2507
      vertex 21.008 3 15.4
      vertex 21.6622 3 15.2507
    endloop
  endfacet
  facet normal -0.222521 4.05835e-08 -0.974928
    outer loop
      vertex 19.7732 0 15.6818
      vertex 21.008 3 15.4
      vertex 21.6622 0 15.2507
    endloop
  endfacet
  facet normal -0.222521 -0 -0.974928
    outer loop
      vertex 19.7732 4 15.6818
      vertex 21.008 3 15.4
      vertex 19.7732 0 15.6818
    endloop
  endfacet
  facet normal -0.222521 0 -0.974928
    outer loop
      vertex 21.008 3 15.4
      vertex 19.7732 4 15.6818
      vertex 21.008 4 15.4
    endloop
  endfacet
  facet normal -0.733052 0 0.680172
    outer loop
      vertex 23.3402 0 4.11809
      vertex 24.6581 3 5.53842
      vertex 23.3402 3 4.11809
    endloop
  endfacet
  facet normal -0.733052 0 0.680172
    outer loop
      vertex 24.6581 3 5.53842
      vertex 23.3402 0 4.11809
      vertex 24.6581 0 5.53842
    endloop
  endfacet
  facet normal -0.900969 0 0.433884
    outer loop
      vertex 24.6581 0 5.53842
      vertex 25.4987 3 7.28409
      vertex 24.6581 3 5.53842
    endloop
  endfacet
  facet normal -0.900969 0 0.433884
    outer loop
      vertex 25.4987 3 7.28409
      vertex 24.6581 0 5.53842
      vertex 25.4987 0 7.28409
    endloop
  endfacet
  facet normal 0.62349 0 0.781831
    outer loop
      vertex 14.5227 3 4.77888
      vertex 16.0375 0 3.57083
      vertex 16.0375 3 3.57083
    endloop
  endfacet
  facet normal 0.62349 0 0.781831
    outer loop
      vertex 16.0375 0 3.57083
      vertex 14.5227 3 4.77888
      vertex 14.5227 0 4.77888
    endloop
  endfacet
  facet normal 0.36534 -0 0.930874
    outer loop
      vertex 17.492 3 3
      vertex 17.8411 4 2.86297
      vertex 17.492 4 3
    endloop
  endfacet
  facet normal 0.36534 0 0.930874
    outer loop
      vertex 17.8411 4 2.86297
      vertex 17.492 3 3
      vertex 17.8411 0 2.86297
    endloop
  endfacet
  facet normal 0.365341 -0 0.930874
    outer loop
      vertex 16.0375 0 3.57083
      vertex 17.492 3 3
      vertex 16.0375 3 3.57083
    endloop
  endfacet
  facet normal 0.36534 3.587e-08 0.930874
    outer loop
      vertex 17.492 3 3
      vertex 16.0375 0 3.57083
      vertex 17.8411 0 2.86297
    endloop
  endfacet
  facet normal 0.62349 0 -0.781831
    outer loop
      vertex 14.5227 0 13.6211
      vertex 16.0375 3 14.8292
      vertex 16.0375 0 14.8292
    endloop
  endfacet
  facet normal 0.62349 0 -0.781831
    outer loop
      vertex 16.0375 3 14.8292
      vertex 14.5227 0 13.6211
      vertex 14.5227 3 13.6211
    endloop
  endfacet
  facet normal -0.222521 0 0.974928
    outer loop
      vertex 21.008 4 3
      vertex 19.7732 4 2.71817
      vertex 21.008 3 3
    endloop
  endfacet
  facet normal -0.222521 0 0.974928
    outer loop
      vertex 21.008 3 3
      vertex 21.6622 0 3.14932
      vertex 21.6622 3 3.14932
    endloop
  endfacet
  facet normal -0.222521 0 0.974928
    outer loop
      vertex 19.7732 0 2.71817
      vertex 21.008 3 3
      vertex 19.7732 4 2.71817
    endloop
  endfacet
  facet normal -0.222521 -6.67531e-08 0.974928
    outer loop
      vertex 21.008 3 3
      vertex 19.7732 0 2.71817
      vertex 21.6622 0 3.14932
    endloop
  endfacet
  facet normal -0.5 0 0.866026
    outer loop
      vertex 21.6622 3 3.14932
      vertex 23.3402 0 4.11809
      vertex 23.3402 3 4.11809
    endloop
  endfacet
  facet normal -0.5 0 0.866026
    outer loop
      vertex 23.3402 0 4.11809
      vertex 21.6622 3 3.14932
      vertex 21.6622 0 3.14932
    endloop
  endfacet
  facet normal 0.826239 -0 0.56332
    outer loop
      vertex 13.4312 0 6.37976
      vertex 14.5227 3 4.77888
      vertex 13.4312 3 6.37976
    endloop
  endfacet
  facet normal 0.826239 0 0.56332
    outer loop
      vertex 14.5227 3 4.77888
      vertex 13.4312 0 6.37976
      vertex 14.5227 0 4.77888
    endloop
  endfacet
  facet normal 0.955573 -0 0.294755
    outer loop
      vertex 12.8601 0 8.23123
      vertex 13.4312 3 6.37976
      vertex 12.8601 3 8.23123
    endloop
  endfacet
  facet normal 0.955573 0 0.294755
    outer loop
      vertex 13.4312 3 6.37976
      vertex 12.8601 0 8.23123
      vertex 13.4312 0 6.37976
    endloop
  endfacet
  facet normal 1 -0 0
    outer loop
      vertex 12.8601 0 10.1688
      vertex 12.8601 3 8.23123
      vertex 12.8601 3 10.1688
    endloop
  endfacet
  facet normal 1 0 0
    outer loop
      vertex 12.8601 3 8.23123
      vertex 12.8601 0 10.1688
      vertex 12.8601 0 8.23123
    endloop
  endfacet
  facet normal -0.5 0 -0.866025
    outer loop
      vertex 21.6622 0 15.2507
      vertex 23.3402 3 14.2819
      vertex 23.3402 0 14.2819
    endloop
  endfacet
  facet normal -0.5 0 -0.866025
    outer loop
      vertex 23.3402 3 14.2819
      vertex 21.6622 0 15.2507
      vertex 21.6622 3 15.2507
    endloop
  endfacet
  facet normal -0.988831 0 -0.149042
    outer loop
      vertex 25.7875 0 9.2
      vertex 25.4987 3 11.1159
      vertex 25.7875 3 9.2
    endloop
  endfacet
  facet normal -0.988831 -0 -0.149042
    outer loop
      vertex 25.4987 3 11.1159
      vertex 25.7875 0 9.2
      vertex 25.4987 0 11.1159
    endloop
  endfacet
  facet normal 0 -1 0
    outer loop
      vertex 19.7732 4 2.71817
      vertex 17.492 4 3
      vertex 17.8411 4 2.86297
    endloop
  endfacet
  facet normal 0 -1 0
    outer loop
      vertex 17.492 4 3
      vertex 19.7732 4 2.71817
      vertex 21.008 4 3
    endloop
  endfacet
  facet normal -0.733052 0 -0.680172
    outer loop
      vertex 24.6581 0 12.8616
      vertex 23.3402 3 14.2819
      vertex 24.6581 3 12.8616
    endloop
  endfacet
  facet normal -0.733052 -0 -0.680172
    outer loop
      vertex 23.3402 3 14.2819
      vertex 24.6581 0 12.8616
      vertex 23.3402 0 14.2819
    endloop
  endfacet
  facet normal -0.900969 0 -0.433884
    outer loop
      vertex 25.4987 0 11.1159
      vertex 24.6581 3 12.8616
      vertex 25.4987 3 11.1159
    endloop
  endfacet
  facet normal -0.900969 -0 -0.433884
    outer loop
      vertex 24.6581 3 12.8616
      vertex 25.4987 0 11.1159
      vertex 24.6581 0 12.8616
    endloop
  endfacet
  facet normal 0.0747298 0 -0.997204
    outer loop
      vertex 17.8411 0 15.537
      vertex 19.7732 4 15.6818
      vertex 19.7732 0 15.6818
    endloop
  endfacet
  facet normal 0.0747298 0 -0.997204
    outer loop
      vertex 19.7732 4 15.6818
      vertex 17.8411 0 15.537
      vertex 17.8411 4 15.537
    endloop
  endfacet
  facet normal 0 -1 0
    outer loop
      vertex 19.4198 4 15.4
      vertex 17.8411 4 15.537
      vertex 17.714 4 15.4
    endloop
  endfacet
  facet normal 0 -1 0
    outer loop
      vertex 17.8411 4 15.537
      vertex 19.4198 4 15.4
      vertex 19.7732 4 15.6818
    endloop
  endfacet
  facet normal 0.826239 0 -0.56332
    outer loop
      vertex 14.5227 0 13.6211
      vertex 13.4312 3 12.0202
      vertex 14.5227 3 13.6211
    endloop
  endfacet
  facet normal 0.826239 0 -0.56332
    outer loop
      vertex 13.4312 3 12.0202
      vertex 14.5227 0 13.6211
      vertex 13.4312 0 12.0202
    endloop
  endfacet
  facet normal 0.955573 0 -0.294755
    outer loop
      vertex 13.4312 0 12.0202
      vertex 12.8601 3 10.1688
      vertex 13.4312 3 12.0202
    endloop
  endfacet
  facet normal 0.955573 0 -0.294755
    outer loop
      vertex 12.8601 3 10.1688
      vertex 13.4312 0 12.0202
      vertex 12.8601 0 10.1688
    endloop
  endfacet
  facet normal 0.36534 0 -0.930874
    outer loop
      vertex 17.8411 0 15.537
      vertex 17.492 3 15.4
      vertex 17.8411 4 15.537
    endloop
  endfacet
  facet normal 0.365341 9.31548e-08 -0.930874
    outer loop
      vertex 16.0375 0 14.8292
      vertex 17.492 3 15.4
      vertex 17.8411 0 15.537
    endloop
  endfacet
  facet normal 0.365341 0 -0.930874
    outer loop
      vertex 17.492 3 15.4
      vertex 16.0375 0 14.8292
      vertex 16.0375 3 14.8292
    endloop
  endfacet
  facet normal 0.36534 0 -0.930874
    outer loop
      vertex 17.8411 4 15.537
      vertex 17.492 3 15.4
      vertex 17.492 4 15.4
    endloop
  endfacet
  facet normal 0 -1 0
    outer loop
      vertex 17.714 4 15.4
      vertex 17.8411 4 15.537
      vertex 17.492 4 15.4
    endloop
  endfacet
endsolid OpenSCAD_Model
