solid OpenSCAD_Model
  facet normal -1 0 0
    outer loop
      vertex 0 0 0
      vertex 0 83.575 20
      vertex 0 83.575 0
    endloop
  endfacet
  facet normal -1 -0 0
    outer loop
      vertex 0 83.575 20
      vertex 0 0 0
      vertex 0 0 20
    endloop
  endfacet
  facet normal 0 0 1
    outer loop
      vertex 38.575 83.575 20
      vertex 36.075 81.075 20
      vertex 38.575 0 20
    endloop
  endfacet
  facet normal 0 0 1
    outer loop
      vertex 38.575 83.575 20
      vertex 2.5 81.075 20
      vertex 36.075 81.075 20
    endloop
  endfacet
  facet normal 0 0 1
    outer loop
      vertex 2.5 81.075 20
      vertex 0 83.575 20
      vertex 2.5 2.5 20
    endloop
  endfacet
  facet normal -0 0 1
    outer loop
      vertex 0 83.575 20
      vertex 2.5 81.075 20
      vertex 38.575 83.575 20
    endloop
  endfacet
  facet normal -0 0 1
    outer loop
      vertex 36.075 2.5 20
      vertex 38.575 0 20
      vertex 36.075 81.075 20
    endloop
  endfacet
  facet normal -0 0 1
    outer loop
      vertex 2.5 2.5 20
      vertex 38.575 0 20
      vertex 36.075 2.5 20
    endloop
  endfacet
  facet normal 0 0 1
    outer loop
      vertex 2.5 2.5 20
      vertex 0 0 20
      vertex 38.575 0 20
    endloop
  endfacet
  facet normal 0 0 1
    outer loop
      vertex 0 0 20
      vertex 2.5 2.5 20
      vertex 0 83.575 20
    endloop
  endfacet
  facet normal 1 -0 0
    outer loop
      vertex 38.575 0 20
      vertex 38.575 83.575 0
      vertex 38.575 83.575 20
    endloop
  endfacet
  facet normal 1 0 0
    outer loop
      vertex 38.575 83.575 0
      vertex 38.575 0 20
      vertex 38.575 0 0
    endloop
  endfacet
  facet normal 0 1 -0
    outer loop
      vertex 38.575 83.575 0
      vertex 0 83.575 20
      vertex 38.575 83.575 20
    endloop
  endfacet
  facet normal 0 1 0
    outer loop
      vertex 0 83.575 20
      vertex 38.575 83.575 0
      vertex 0 83.575 0
    endloop
  endfacet
  facet normal 0 0 -1
    outer loop
      vertex 26.7483 64.0256 0
      vertex 38.575 83.575 0
      vertex 38.575 0 0
    endloop
  endfacet
  facet normal 0 0 -1
    outer loop
      vertex 38.575 83.575 0
      vertex 27.3844 65.8433 0
      vertex 27.6 67.757 0
    endloop
  endfacet
  facet normal 0 0 -1
    outer loop
      vertex 38.575 83.575 0
      vertex 26.7483 64.0256 0
      vertex 27.3844 65.8433 0
    endloop
  endfacet
  facet normal 0 0 -1
    outer loop
      vertex 38.575 0 0
      vertex 25.7238 62.395 0
      vertex 26.7483 64.0256 0
    endloop
  endfacet
  facet normal 0 0 -1
    outer loop
      vertex 38.575 0 0
      vertex 24.362 61.0332 0
      vertex 25.7238 62.395 0
    endloop
  endfacet
  facet normal 0 0 -1
    outer loop
      vertex 38.575 0 0
      vertex 22.7314 60.0087 0
      vertex 24.362 61.0332 0
    endloop
  endfacet
  facet normal 0 0 -1
    outer loop
      vertex 38.575 0 0
      vertex 20.9137 59.3726 0
      vertex 22.7314 60.0087 0
    endloop
  endfacet
  facet normal 0 0 -1
    outer loop
      vertex 38.575 0 0
      vertex 19 59.157 0
      vertex 20.9137 59.3726 0
    endloop
  endfacet
  facet normal 0 0 -1
    outer loop
      vertex 0 0 0
      vertex 19 59.157 0
      vertex 38.575 0 0
    endloop
  endfacet
  facet normal -0 0 -1
    outer loop
      vertex 19 59.157 0
      vertex 0 0 0
      vertex 17.0863 59.3726 0
    endloop
  endfacet
  facet normal -0 0 -1
    outer loop
      vertex 17.0863 59.3726 0
      vertex 0 0 0
      vertex 15.2686 60.0087 0
    endloop
  endfacet
  facet normal -0 0 -1
    outer loop
      vertex 15.2686 60.0087 0
      vertex 0 0 0
      vertex 13.638 61.0332 0
    endloop
  endfacet
  facet normal -0 0 -1
    outer loop
      vertex 13.638 61.0332 0
      vertex 0 0 0
      vertex 12.2762 62.395 0
    endloop
  endfacet
  facet normal 0 0 -1
    outer loop
      vertex 11.2517 64.0256 0
      vertex 0 83.575 0
      vertex 10.6156 65.8433 0
    endloop
  endfacet
  facet normal 0 0 -1
    outer loop
      vertex 0 83.575 0
      vertex 11.2517 64.0256 0
      vertex 0 0 0
    endloop
  endfacet
  facet normal -0 0 -1
    outer loop
      vertex 12.2762 62.395 0
      vertex 0 0 0
      vertex 11.2517 64.0256 0
    endloop
  endfacet
  facet normal 0 0 -1
    outer loop
      vertex 27.3844 69.6707 0
      vertex 38.575 83.575 0
      vertex 27.6 67.757 0
    endloop
  endfacet
  facet normal 0 0 -1
    outer loop
      vertex 26.7483 71.4884 0
      vertex 38.575 83.575 0
      vertex 27.3844 69.6707 0
    endloop
  endfacet
  facet normal 0 0 -1
    outer loop
      vertex 25.7238 73.119 0
      vertex 38.575 83.575 0
      vertex 26.7483 71.4884 0
    endloop
  endfacet
  facet normal 0 0 -1
    outer loop
      vertex 24.362 74.4808 0
      vertex 38.575 83.575 0
      vertex 25.7238 73.119 0
    endloop
  endfacet
  facet normal 0 0 -1
    outer loop
      vertex 22.7314 75.5053 0
      vertex 38.575 83.575 0
      vertex 24.362 74.4808 0
    endloop
  endfacet
  facet normal 0 0 -1
    outer loop
      vertex 20.9137 76.1414 0
      vertex 38.575 83.575 0
      vertex 22.7314 75.5053 0
    endloop
  endfacet
  facet normal 0 0 -1
    outer loop
      vertex 19 76.357 0
      vertex 38.575 83.575 0
      vertex 20.9137 76.1414 0
    endloop
  endfacet
  facet normal 0 0 -1
    outer loop
      vertex 0 83.575 0
      vertex 19 76.357 0
      vertex 17.0863 76.1414 0
    endloop
  endfacet
  facet normal 0 0 -1
    outer loop
      vertex 10.6156 65.8433 0
      vertex 0 83.575 0
      vertex 10.4 67.757 0
    endloop
  endfacet
  facet normal 0 0 -1
    outer loop
      vertex 19 76.357 0
      vertex 0 83.575 0
      vertex 38.575 83.575 0
    endloop
  endfacet
  facet normal 0 0 -1
    outer loop
      vertex 15.2686 75.5053 0
      vertex 0 83.575 0
      vertex 17.0863 76.1414 0
    endloop
  endfacet
  facet normal 0 0 -1
    outer loop
      vertex 13.638 74.4808 0
      vertex 0 83.575 0
      vertex 15.2686 75.5053 0
    endloop
  endfacet
  facet normal 0 0 -1
    outer loop
      vertex 12.2762 73.119 0
      vertex 0 83.575 0
      vertex 13.638 74.4808 0
    endloop
  endfacet
  facet normal 0 0 -1
    outer loop
      vertex 11.2517 71.4884 0
      vertex 0 83.575 0
      vertex 12.2762 73.119 0
    endloop
  endfacet
  facet normal 0 0 -1
    outer loop
      vertex 10.6156 69.6707 0
      vertex 0 83.575 0
      vertex 11.2517 71.4884 0
    endloop
  endfacet
  facet normal 0 0 -1
    outer loop
      vertex 10.4 67.757 0
      vertex 0 83.575 0
      vertex 10.6156 69.6707 0
    endloop
  endfacet
  facet normal 0 -1 0
    outer loop
      vertex 0 0 20
      vertex 19.7732 0 16.4818
      vertex 38.575 0 20
    endloop
  endfacet
  facet normal 0 -1 0
    outer loop
      vertex 0 0 20
      vertex 17.8411 0 16.337
      vertex 19.7732 0 16.4818
    endloop
  endfacet
  facet normal 0 -1 0
    outer loop
      vertex 0 0 20
      vertex 16.0375 0 15.6292
      vertex 17.8411 0 16.337
    endloop
  endfacet
  facet normal 0 -1 0
    outer loop
      vertex 0 0 20
      vertex 14.5227 0 14.4211
      vertex 16.0375 0 15.6292
    endloop
  endfacet
  facet normal 0 -1 0
    outer loop
      vertex 0 0 20
      vertex 13.4312 0 12.8202
      vertex 14.5227 0 14.4211
    endloop
  endfacet
  facet normal 0 -1 0
    outer loop
      vertex 0 0 20
      vertex 12.8601 0 10.9688
      vertex 13.4312 0 12.8202
    endloop
  endfacet
  facet normal 0 -1 0
    outer loop
      vertex 0 0 20
      vertex 12.8601 0 9.03123
      vertex 12.8601 0 10.9688
    endloop
  endfacet
  facet normal 0 -1 0
    outer loop
      vertex 0 0 0
      vertex 12.8601 0 9.03123
      vertex 0 0 20
    endloop
  endfacet
  facet normal 0 -1 -0
    outer loop
      vertex 12.8601 0 9.03123
      vertex 0 0 0
      vertex 13.4312 0 7.17976
    endloop
  endfacet
  facet normal 0 -1 -0
    outer loop
      vertex 17.8411 0 3.66297
      vertex 0 0 0
      vertex 19.7732 0 3.51818
    endloop
  endfacet
  facet normal 0 -1 -0
    outer loop
      vertex 16.0375 0 4.37083
      vertex 0 0 0
      vertex 17.8411 0 3.66297
    endloop
  endfacet
  facet normal 0 -1 -0
    outer loop
      vertex 14.5227 0 5.57888
      vertex 0 0 0
      vertex 16.0375 0 4.37083
    endloop
  endfacet
  facet normal 0 -1 -0
    outer loop
      vertex 13.4312 0 7.17976
      vertex 0 0 0
      vertex 14.5227 0 5.57888
    endloop
  endfacet
  facet normal 0 -1 0
    outer loop
      vertex 21.6622 0 16.0507
      vertex 38.575 0 20
      vertex 19.7732 0 16.4818
    endloop
  endfacet
  facet normal 0 -1 0
    outer loop
      vertex 23.3402 0 15.0819
      vertex 38.575 0 20
      vertex 21.6622 0 16.0507
    endloop
  endfacet
  facet normal 0 -1 0
    outer loop
      vertex 24.6581 0 13.6616
      vertex 38.575 0 20
      vertex 23.3402 0 15.0819
    endloop
  endfacet
  facet normal 0 -1 0
    outer loop
      vertex 25.4987 0 11.9159
      vertex 38.575 0 20
      vertex 24.6581 0 13.6616
    endloop
  endfacet
  facet normal 0 -1 0
    outer loop
      vertex 25.7875 0 10
      vertex 38.575 0 20
      vertex 25.4987 0 11.9159
    endloop
  endfacet
  facet normal 0 -1 0
    outer loop
      vertex 38.575 0 0
      vertex 25.7875 0 10
      vertex 25.4987 0 8.08409
    endloop
  endfacet
  facet normal 0 -1 0
    outer loop
      vertex 38.575 0 0
      vertex 25.4987 0 8.08409
      vertex 24.6581 0 6.33842
    endloop
  endfacet
  facet normal 0 -1 0
    outer loop
      vertex 38.575 0 0
      vertex 24.6581 0 6.33842
      vertex 23.3402 0 4.91809
    endloop
  endfacet
  facet normal 0 -1 0
    outer loop
      vertex 25.7875 0 10
      vertex 38.575 0 0
      vertex 38.575 0 20
    endloop
  endfacet
  facet normal 0 -1 0
    outer loop
      vertex 21.6622 0 3.94932
      vertex 38.575 0 0
      vertex 23.3402 0 4.91809
    endloop
  endfacet
  facet normal 0 -1 0
    outer loop
      vertex 19.7732 0 3.51818
      vertex 38.575 0 0
      vertex 21.6622 0 3.94932
    endloop
  endfacet
  facet normal 0 -1 0
    outer loop
      vertex 38.575 0 0
      vertex 19.7732 0 3.51818
      vertex 0 0 0
    endloop
  endfacet
  facet normal 1 -0 0
    outer loop
      vertex 5 5 19.25
      vertex 5 80.575 17
      vertex 5 80.575 19.25
    endloop
  endfacet
  facet normal 1 0 0
    outer loop
      vertex 5 80.575 17
      vertex 5 5 19.25
      vertex 5 5 17
    endloop
  endfacet
  facet normal -1 0 0
    outer loop
      vertex 33.575 5 17
      vertex 33.575 80.575 19.25
      vertex 33.575 80.575 17
    endloop
  endfacet
  facet normal -1 -0 0
    outer loop
      vertex 33.575 80.575 19.25
      vertex 33.575 5 17
      vertex 33.575 5 19.25
    endloop
  endfacet
  facet normal 0 0 1
    outer loop
      vertex 27.3844 65.8433 3
      vertex 35.575 80.575 3
      vertex 27.6 67.757 3
    endloop
  endfacet
  facet normal 0 0 1
    outer loop
      vertex 35.575 80.575 3
      vertex 27.3844 69.6707 3
      vertex 27.6 67.757 3
    endloop
  endfacet
  facet normal 0 0 1
    outer loop
      vertex 35.575 80.575 3
      vertex 26.7483 71.4884 3
      vertex 27.3844 69.6707 3
    endloop
  endfacet
  facet normal 0 0 1
    outer loop
      vertex 35.575 80.575 3
      vertex 25.7238 73.119 3
      vertex 26.7483 71.4884 3
    endloop
  endfacet
  facet normal 0 0 1
    outer loop
      vertex 35.575 80.575 3
      vertex 24.362 74.4808 3
      vertex 25.7238 73.119 3
    endloop
  endfacet
  facet normal 0 0 1
    outer loop
      vertex 35.575 80.575 3
      vertex 22.7314 75.5053 3
      vertex 24.362 74.4808 3
    endloop
  endfacet
  facet normal 0 0 1
    outer loop
      vertex 35.575 80.575 3
      vertex 20.9137 76.1414 3
      vertex 22.7314 75.5053 3
    endloop
  endfacet
  facet normal 0 0 1
    outer loop
      vertex 35.575 80.575 3
      vertex 19 76.357 3
      vertex 20.9137 76.1414 3
    endloop
  endfacet
  facet normal -0 0 1
    outer loop
      vertex 3 80.575 3
      vertex 19 76.357 3
      vertex 35.575 80.575 3
    endloop
  endfacet
  facet normal 0 0 1
    outer loop
      vertex 10.6156 69.6707 3
      vertex 3 80.575 3
      vertex 10.4 67.757 3
    endloop
  endfacet
  facet normal 0 0 1
    outer loop
      vertex 11.2517 71.4884 3
      vertex 3 80.575 3
      vertex 10.6156 69.6707 3
    endloop
  endfacet
  facet normal 0 0 1
    outer loop
      vertex 12.2762 73.119 3
      vertex 3 80.575 3
      vertex 11.2517 71.4884 3
    endloop
  endfacet
  facet normal 0 0 1
    outer loop
      vertex 13.638 74.4808 3
      vertex 3 80.575 3
      vertex 12.2762 73.119 3
    endloop
  endfacet
  facet normal 0 0 1
    outer loop
      vertex 15.2686 75.5053 3
      vertex 3 80.575 3
      vertex 13.638 74.4808 3
    endloop
  endfacet
  facet normal 0 0 1
    outer loop
      vertex 17.0863 76.1414 3
      vertex 3 80.575 3
      vertex 15.2686 75.5053 3
    endloop
  endfacet
  facet normal 0 0 1
    outer loop
      vertex 19 76.357 3
      vertex 3 80.575 3
      vertex 17.0863 76.1414 3
    endloop
  endfacet
  facet normal 0 0 1
    outer loop
      vertex 26.7483 64.0256 3
      vertex 35.575 80.575 3
      vertex 27.3844 65.8433 3
    endloop
  endfacet
  facet normal 0 0 1
    outer loop
      vertex 35.575 80.575 3
      vertex 26.7483 64.0256 3
      vertex 35.575 3 3
    endloop
  endfacet
  facet normal -0 0 1
    outer loop
      vertex 25.7238 62.395 3
      vertex 35.575 3 3
      vertex 26.7483 64.0256 3
    endloop
  endfacet
  facet normal -0 0 1
    outer loop
      vertex 24.362 61.0332 3
      vertex 35.575 3 3
      vertex 25.7238 62.395 3
    endloop
  endfacet
  facet normal -0 0 1
    outer loop
      vertex 22.7314 60.0087 3
      vertex 35.575 3 3
      vertex 24.362 61.0332 3
    endloop
  endfacet
  facet normal -0 0 1
    outer loop
      vertex 20.9137 59.3726 3
      vertex 35.575 3 3
      vertex 22.7314 60.0087 3
    endloop
  endfacet
  facet normal -0 0 1
    outer loop
      vertex 19 59.157 3
      vertex 35.575 3 3
      vertex 20.9137 59.3726 3
    endloop
  endfacet
  facet normal 0 0 1
    outer loop
      vertex 3 3 3
      vertex 19 59.157 3
      vertex 17.0863 59.3726 3
    endloop
  endfacet
  facet normal 0 0 1
    outer loop
      vertex 3 3 3
      vertex 17.0863 59.3726 3
      vertex 15.2686 60.0087 3
    endloop
  endfacet
  facet normal 0 0 1
    outer loop
      vertex 3 3 3
      vertex 15.2686 60.0087 3
      vertex 13.638 61.0332 3
    endloop
  endfacet
  facet normal 0 0 1
    outer loop
      vertex 3 3 3
      vertex 13.638 61.0332 3
      vertex 12.2762 62.395 3
    endloop
  endfacet
  facet normal 0 0 1
    outer loop
      vertex 3 3 3
      vertex 12.2762 62.395 3
      vertex 11.2517 64.0256 3
    endloop
  endfacet
  facet normal 0 0 1
    outer loop
      vertex 3 80.575 3
      vertex 10.6156 65.8433 3
      vertex 10.4 67.757 3
    endloop
  endfacet
  facet normal 0 0 1
    outer loop
      vertex 3 80.575 3
      vertex 11.2517 64.0256 3
      vertex 10.6156 65.8433 3
    endloop
  endfacet
  facet normal 0 0 1
    outer loop
      vertex 3 3 3
      vertex 11.2517 64.0256 3
      vertex 3 80.575 3
    endloop
  endfacet
  facet normal 0 0 1
    outer loop
      vertex 19 59.157 3
      vertex 3 3 3
      vertex 35.575 3 3
    endloop
  endfacet
  facet normal 0 1 -0
    outer loop
      vertex 33.575 5 17
      vertex 5 5 19.25
      vertex 33.575 5 19.25
    endloop
  endfacet
  facet normal 0 1 0
    outer loop
      vertex 5 5 19.25
      vertex 33.575 5 17
      vertex 5 5 17
    endloop
  endfacet
  facet normal 0 -1 0
    outer loop
      vertex 3 80.575 3
      vertex 5 80.575 17
      vertex 3 80.575 17
    endloop
  endfacet
  facet normal 0 -1 -0
    outer loop
      vertex 5 80.575 17
      vertex 3 80.575 3
      vertex 33.575 80.575 17
    endloop
  endfacet
  facet normal 0 -1 0
    outer loop
      vertex 35.575 80.575 3
      vertex 33.575 80.575 17
      vertex 3 80.575 3
    endloop
  endfacet
  facet normal 0 -1 0
    outer loop
      vertex 33.575 80.575 17
      vertex 35.575 80.575 3
      vertex 35.575 80.575 17
    endloop
  endfacet
  facet normal 0 -1 0
    outer loop
      vertex 5 80.575 17
      vertex 33.575 80.575 19.25
      vertex 5 80.575 19.25
    endloop
  endfacet
  facet normal 0 -1 -0
    outer loop
      vertex 33.575 80.575 19.25
      vertex 5 80.575 17
      vertex 33.575 80.575 17
    endloop
  endfacet
  facet normal 1 -0 0
    outer loop
      vertex 2.5 2.5 20
      vertex 2.5 81.075 19.25
      vertex 2.5 81.075 20
    endloop
  endfacet
  facet normal 1 0 0
    outer loop
      vertex 2.5 81.075 19.25
      vertex 2.5 2.5 20
      vertex 2.5 2.5 19.25
    endloop
  endfacet
  facet normal -1 0 0
    outer loop
      vertex 36.075 2.5 19.25
      vertex 36.075 81.075 20
      vertex 36.075 81.075 19.25
    endloop
  endfacet
  facet normal -1 -0 0
    outer loop
      vertex 36.075 81.075 20
      vertex 36.075 2.5 19.25
      vertex 36.075 2.5 20
    endloop
  endfacet
  facet normal 0 -1 0
    outer loop
      vertex 2.5 81.075 19.25
      vertex 36.075 81.075 20
      vertex 2.5 81.075 20
    endloop
  endfacet
  facet normal 0 -1 -0
    outer loop
      vertex 36.075 81.075 20
      vertex 2.5 81.075 19.25
      vertex 36.075 81.075 19.25
    endloop
  endfacet
  facet normal 0 0 1
    outer loop
      vertex 33.575 5 19.25
      vertex 36.075 81.075 19.25
      vertex 33.575 80.575 19.25
    endloop
  endfacet
  facet normal 0 0 1
    outer loop
      vertex 36.075 81.075 19.25
      vertex 5 80.575 19.25
      vertex 33.575 80.575 19.25
    endloop
  endfacet
  facet normal 0 0 1
    outer loop
      vertex 5 80.575 19.25
      vertex 2.5 81.075 19.25
      vertex 5 5 19.25
    endloop
  endfacet
  facet normal -0 0 1
    outer loop
      vertex 2.5 81.075 19.25
      vertex 5 80.575 19.25
      vertex 36.075 81.075 19.25
    endloop
  endfacet
  facet normal 0 0 1
    outer loop
      vertex 36.075 81.075 19.25
      vertex 33.575 5 19.25
      vertex 36.075 2.5 19.25
    endloop
  endfacet
  facet normal -0 0 1
    outer loop
      vertex 5 5 19.25
      vertex 36.075 2.5 19.25
      vertex 33.575 5 19.25
    endloop
  endfacet
  facet normal 0 0 1
    outer loop
      vertex 5 5 19.25
      vertex 2.5 2.5 19.25
      vertex 36.075 2.5 19.25
    endloop
  endfacet
  facet normal 0 0 1
    outer loop
      vertex 2.5 2.5 19.25
      vertex 5 5 19.25
      vertex 2.5 81.075 19.25
    endloop
  endfacet
  facet normal 0 1 -0
    outer loop
      vertex 36.075 2.5 19.25
      vertex 2.5 2.5 20
      vertex 36.075 2.5 20
    endloop
  endfacet
  facet normal 0 1 0
    outer loop
      vertex 2.5 2.5 20
      vertex 36.075 2.5 19.25
      vertex 2.5 2.5 19.25
    endloop
  endfacet
  facet normal 1 -0 0
    outer loop
      vertex 3 3 17
      vertex 3 80.575 3
      vertex 3 80.575 17
    endloop
  endfacet
  facet normal 1 0 0
    outer loop
      vertex 3 80.575 3
      vertex 3 3 17
      vertex 3 3 3
    endloop
  endfacet
  facet normal 0 0 -1
    outer loop
      vertex 35.575 3 17
      vertex 33.575 5 17
      vertex 35.575 80.575 17
    endloop
  endfacet
  facet normal 0 0 -1
    outer loop
      vertex 35.575 3 17
      vertex 5 5 17
      vertex 33.575 5 17
    endloop
  endfacet
  facet normal 0 0 -1
    outer loop
      vertex 3 3 17
      vertex 5 5 17
      vertex 35.575 3 17
    endloop
  endfacet
  facet normal 0 0 -1
    outer loop
      vertex 3 80.575 17
      vertex 5 5 17
      vertex 3 3 17
    endloop
  endfacet
  facet normal 0 0 -1
    outer loop
      vertex 5 5 17
      vertex 3 80.575 17
      vertex 5 80.575 17
    endloop
  endfacet
  facet normal -0 0 -1
    outer loop
      vertex 35.575 80.575 17
      vertex 33.575 5 17
      vertex 33.575 80.575 17
    endloop
  endfacet
  facet normal -1 0 0
    outer loop
      vertex 35.575 3 3
      vertex 35.575 80.575 17
      vertex 35.575 80.575 3
    endloop
  endfacet
  facet normal -1 -0 0
    outer loop
      vertex 35.575 80.575 17
      vertex 35.575 3 3
      vertex 35.575 3 17
    endloop
  endfacet
  facet normal 0 1 0
    outer loop
      vertex 35.575 3 17
      vertex 19.7732 3 16.4818
      vertex 3 3 17
    endloop
  endfacet
  facet normal 0 1 0
    outer loop
      vertex 35.575 3 17
      vertex 21.6622 3 16.0507
      vertex 19.7732 3 16.4818
    endloop
  endfacet
  facet normal 0 1 0
    outer loop
      vertex 35.575 3 17
      vertex 23.3402 3 15.0819
      vertex 21.6622 3 16.0507
    endloop
  endfacet
  facet normal 0 1 0
    outer loop
      vertex 35.575 3 17
      vertex 24.6581 3 13.6616
      vertex 23.3402 3 15.0819
    endloop
  endfacet
  facet normal 0 1 0
    outer loop
      vertex 35.575 3 17
      vertex 25.4987 3 11.9159
      vertex 24.6581 3 13.6616
    endloop
  endfacet
  facet normal 0 1 0
    outer loop
      vertex 35.575 3 17
      vertex 25.7875 3 10
      vertex 25.4987 3 11.9159
    endloop
  endfacet
  facet normal 0 1 -0
    outer loop
      vertex 35.575 3 3
      vertex 25.7875 3 10
      vertex 35.575 3 17
    endloop
  endfacet
  facet normal 0 1 0
    outer loop
      vertex 25.7875 3 10
      vertex 35.575 3 3
      vertex 25.4987 3 8.08409
    endloop
  endfacet
  facet normal 0 1 0
    outer loop
      vertex 25.4987 3 8.08409
      vertex 35.575 3 3
      vertex 24.6581 3 6.33842
    endloop
  endfacet
  facet normal 0 1 0
    outer loop
      vertex 21.6622 3 3.94932
      vertex 35.575 3 3
      vertex 19.7732 3 3.51818
    endloop
  endfacet
  facet normal 0 1 0
    outer loop
      vertex 23.3402 3 4.91809
      vertex 35.575 3 3
      vertex 21.6622 3 3.94932
    endloop
  endfacet
  facet normal 0 1 0
    outer loop
      vertex 24.6581 3 6.33842
      vertex 35.575 3 3
      vertex 23.3402 3 4.91809
    endloop
  endfacet
  facet normal 0 1 -0
    outer loop
      vertex 17.8411 3 16.337
      vertex 3 3 17
      vertex 19.7732 3 16.4818
    endloop
  endfacet
  facet normal 0 1 -0
    outer loop
      vertex 16.0375 3 15.6292
      vertex 3 3 17
      vertex 17.8411 3 16.337
    endloop
  endfacet
  facet normal 0 1 -0
    outer loop
      vertex 14.5227 3 14.4211
      vertex 3 3 17
      vertex 16.0375 3 15.6292
    endloop
  endfacet
  facet normal 0 1 -0
    outer loop
      vertex 13.4312 3 12.8202
      vertex 3 3 17
      vertex 14.5227 3 14.4211
    endloop
  endfacet
  facet normal 0 1 -0
    outer loop
      vertex 12.8601 3 10.9688
      vertex 3 3 17
      vertex 13.4312 3 12.8202
    endloop
  endfacet
  facet normal 0 1 -0
    outer loop
      vertex 12.8601 3 9.03123
      vertex 3 3 17
      vertex 12.8601 3 10.9688
    endloop
  endfacet
  facet normal 0 1 0
    outer loop
      vertex 3 3 3
      vertex 12.8601 3 9.03123
      vertex 13.4312 3 7.17976
    endloop
  endfacet
  facet normal 0 1 0
    outer loop
      vertex 3 3 3
      vertex 13.4312 3 7.17976
      vertex 14.5227 3 5.57888
    endloop
  endfacet
  facet normal 0 1 0
    outer loop
      vertex 12.8601 3 9.03123
      vertex 3 3 3
      vertex 3 3 17
    endloop
  endfacet
  facet normal 0 1 0
    outer loop
      vertex 16.0375 3 4.37083
      vertex 3 3 3
      vertex 14.5227 3 5.57888
    endloop
  endfacet
  facet normal 0 1 0
    outer loop
      vertex 17.8411 3 3.66297
      vertex 3 3 3
      vertex 16.0375 3 4.37083
    endloop
  endfacet
  facet normal 0 1 0
    outer loop
      vertex 19.7732 3 3.51818
      vertex 3 3 3
      vertex 17.8411 3 3.66297
    endloop
  endfacet
  facet normal 0 1 0
    outer loop
      vertex 3 3 3
      vertex 19.7732 3 3.51818
      vertex 35.575 3 3
    endloop
  endfacet
  facet normal -0.993712 -0.111964 0
    outer loop
      vertex 27.6 67.757 0
      vertex 27.3844 69.6707 3
      vertex 27.3844 69.6707 0
    endloop
  endfacet
  facet normal -0.993712 -0.111964 0
    outer loop
      vertex 27.3844 69.6707 3
      vertex 27.6 67.757 0
      vertex 27.6 67.757 3
    endloop
  endfacet
  facet normal 0.111965 -0.993712 0
    outer loop
      vertex 17.0863 76.1414 0
      vertex 19 76.357 3
      vertex 17.0863 76.1414 3
    endloop
  endfacet
  facet normal 0.111965 -0.993712 0
    outer loop
      vertex 19 76.357 3
      vertex 17.0863 76.1414 0
      vertex 19 76.357 0
    endloop
  endfacet
  facet normal -0.111966 0.993712 0
    outer loop
      vertex 20.9137 59.3726 0
      vertex 19 59.157 3
      vertex 20.9137 59.3726 3
    endloop
  endfacet
  facet normal -0.111966 0.993712 0
    outer loop
      vertex 19 59.157 3
      vertex 20.9137 59.3726 0
      vertex 19 59.157 0
    endloop
  endfacet
  facet normal -0.532032 -0.846724 0
    outer loop
      vertex 22.7314 75.5053 0
      vertex 24.362 74.4808 3
      vertex 22.7314 75.5053 3
    endloop
  endfacet
  facet normal -0.532032 -0.846724 -0
    outer loop
      vertex 24.362 74.4808 3
      vertex 22.7314 75.5053 0
      vertex 24.362 74.4808 0
    endloop
  endfacet
  facet normal 0.846723 -0.532033 0
    outer loop
      vertex 11.2517 71.4884 3
      vertex 12.2762 73.119 0
      vertex 12.2762 73.119 3
    endloop
  endfacet
  facet normal 0.846723 -0.532033 0
    outer loop
      vertex 12.2762 73.119 0
      vertex 11.2517 71.4884 3
      vertex 11.2517 71.4884 0
    endloop
  endfacet
  facet normal 0.532032 -0.846724 0
    outer loop
      vertex 13.638 74.4808 0
      vertex 15.2686 75.5053 3
      vertex 13.638 74.4808 3
    endloop
  endfacet
  facet normal 0.532032 -0.846724 0
    outer loop
      vertex 15.2686 75.5053 3
      vertex 13.638 74.4808 0
      vertex 15.2686 75.5053 0
    endloop
  endfacet
  facet normal -0.846723 0.532033 0
    outer loop
      vertex 25.7238 62.395 0
      vertex 26.7483 64.0256 3
      vertex 26.7483 64.0256 0
    endloop
  endfacet
  facet normal -0.846723 0.532033 0
    outer loop
      vertex 26.7483 64.0256 3
      vertex 25.7238 62.395 0
      vertex 25.7238 62.395 3
    endloop
  endfacet
  facet normal -0.846723 -0.532033 0
    outer loop
      vertex 26.7483 71.4884 0
      vertex 25.7238 73.119 3
      vertex 25.7238 73.119 0
    endloop
  endfacet
  facet normal -0.846723 -0.532033 0
    outer loop
      vertex 25.7238 73.119 3
      vertex 26.7483 71.4884 0
      vertex 26.7483 71.4884 3
    endloop
  endfacet
  facet normal -0.943884 -0.330278 0
    outer loop
      vertex 27.3844 69.6707 0
      vertex 26.7483 71.4884 3
      vertex 26.7483 71.4884 0
    endloop
  endfacet
  facet normal -0.943884 -0.330278 0
    outer loop
      vertex 26.7483 71.4884 3
      vertex 27.3844 69.6707 0
      vertex 27.3844 69.6707 3
    endloop
  endfacet
  facet normal -0.707107 -0.707107 0
    outer loop
      vertex 25.7238 73.119 0
      vertex 24.362 74.4808 3
      vertex 24.362 74.4808 0
    endloop
  endfacet
  facet normal -0.707107 -0.707107 0
    outer loop
      vertex 24.362 74.4808 3
      vertex 25.7238 73.119 0
      vertex 25.7238 73.119 3
    endloop
  endfacet
  facet normal -0.111966 -0.993712 0
    outer loop
      vertex 19 76.357 0
      vertex 20.9137 76.1414 3
      vertex 19 76.357 3
    endloop
  endfacet
  facet normal -0.111966 -0.993712 -0
    outer loop
      vertex 20.9137 76.1414 3
      vertex 19 76.357 0
      vertex 20.9137 76.1414 0
    endloop
  endfacet
  facet normal -0.330279 -0.943883 0
    outer loop
      vertex 20.9137 76.1414 0
      vertex 22.7314 75.5053 3
      vertex 20.9137 76.1414 3
    endloop
  endfacet
  facet normal -0.330279 -0.943883 -0
    outer loop
      vertex 22.7314 75.5053 3
      vertex 20.9137 76.1414 0
      vertex 22.7314 75.5053 0
    endloop
  endfacet
  facet normal 0.943884 -0.330278 0
    outer loop
      vertex 10.6156 69.6707 3
      vertex 11.2517 71.4884 0
      vertex 11.2517 71.4884 3
    endloop
  endfacet
  facet normal 0.943884 -0.330278 0
    outer loop
      vertex 11.2517 71.4884 0
      vertex 10.6156 69.6707 3
      vertex 10.6156 69.6707 0
    endloop
  endfacet
  facet normal 0.993712 -0.111965 0
    outer loop
      vertex 10.4 67.757 3
      vertex 10.6156 69.6707 0
      vertex 10.6156 69.6707 3
    endloop
  endfacet
  facet normal 0.993712 -0.111965 0
    outer loop
      vertex 10.6156 69.6707 0
      vertex 10.4 67.757 3
      vertex 10.4 67.757 0
    endloop
  endfacet
  facet normal 0.993712 0.111964 0
    outer loop
      vertex 10.6156 65.8433 3
      vertex 10.4 67.757 0
      vertex 10.4 67.757 3
    endloop
  endfacet
  facet normal 0.993712 0.111964 0
    outer loop
      vertex 10.4 67.757 0
      vertex 10.6156 65.8433 3
      vertex 10.6156 65.8433 0
    endloop
  endfacet
  facet normal 0.707107 -0.707106 0
    outer loop
      vertex 12.2762 73.119 3
      vertex 13.638 74.4808 0
      vertex 13.638 74.4808 3
    endloop
  endfacet
  facet normal 0.707107 -0.707106 0
    outer loop
      vertex 13.638 74.4808 0
      vertex 12.2762 73.119 3
      vertex 12.2762 73.119 0
    endloop
  endfacet
  facet normal 0.330279 -0.943883 0
    outer loop
      vertex 15.2686 75.5053 0
      vertex 17.0863 76.1414 3
      vertex 15.2686 75.5053 3
    endloop
  endfacet
  facet normal 0.330279 -0.943883 0
    outer loop
      vertex 17.0863 76.1414 3
      vertex 15.2686 75.5053 0
      vertex 17.0863 76.1414 0
    endloop
  endfacet
  facet normal -0.993712 0.111963 0
    outer loop
      vertex 27.3844 65.8433 0
      vertex 27.6 67.757 3
      vertex 27.6 67.757 0
    endloop
  endfacet
  facet normal -0.993712 0.111963 0
    outer loop
      vertex 27.6 67.757 3
      vertex 27.3844 65.8433 0
      vertex 27.3844 65.8433 3
    endloop
  endfacet
  facet normal -0.943884 0.330278 0
    outer loop
      vertex 26.7483 64.0256 0
      vertex 27.3844 65.8433 3
      vertex 27.3844 65.8433 0
    endloop
  endfacet
  facet normal -0.943884 0.330278 0
    outer loop
      vertex 27.3844 65.8433 3
      vertex 26.7483 64.0256 0
      vertex 26.7483 64.0256 3
    endloop
  endfacet
  facet normal 0.330279 0.943883 -0
    outer loop
      vertex 17.0863 59.3726 0
      vertex 15.2686 60.0087 3
      vertex 17.0863 59.3726 3
    endloop
  endfacet
  facet normal 0.330279 0.943883 0
    outer loop
      vertex 15.2686 60.0087 3
      vertex 17.0863 59.3726 0
      vertex 15.2686 60.0087 0
    endloop
  endfacet
  facet normal 0.707107 0.707106 0
    outer loop
      vertex 13.638 61.0332 3
      vertex 12.2762 62.395 0
      vertex 12.2762 62.395 3
    endloop
  endfacet
  facet normal 0.707107 0.707106 0
    outer loop
      vertex 12.2762 62.395 0
      vertex 13.638 61.0332 3
      vertex 13.638 61.0332 0
    endloop
  endfacet
  facet normal -0.707107 0.707107 0
    outer loop
      vertex 24.362 61.0332 0
      vertex 25.7238 62.395 3
      vertex 25.7238 62.395 0
    endloop
  endfacet
  facet normal -0.707107 0.707107 0
    outer loop
      vertex 25.7238 62.395 3
      vertex 24.362 61.0332 0
      vertex 24.362 61.0332 3
    endloop
  endfacet
  facet normal -0.532032 0.846724 0
    outer loop
      vertex 24.362 61.0332 0
      vertex 22.7314 60.0087 3
      vertex 24.362 61.0332 3
    endloop
  endfacet
  facet normal -0.532032 0.846724 0
    outer loop
      vertex 22.7314 60.0087 3
      vertex 24.362 61.0332 0
      vertex 22.7314 60.0087 0
    endloop
  endfacet
  facet normal -0.330279 0.943883 0
    outer loop
      vertex 22.7314 60.0087 0
      vertex 20.9137 59.3726 3
      vertex 22.7314 60.0087 3
    endloop
  endfacet
  facet normal -0.330279 0.943883 0
    outer loop
      vertex 20.9137 59.3726 3
      vertex 22.7314 60.0087 0
      vertex 20.9137 59.3726 0
    endloop
  endfacet
  facet normal 0.532032 0.846724 -0
    outer loop
      vertex 15.2686 60.0087 0
      vertex 13.638 61.0332 3
      vertex 15.2686 60.0087 3
    endloop
  endfacet
  facet normal 0.532032 0.846724 0
    outer loop
      vertex 13.638 61.0332 3
      vertex 15.2686 60.0087 0
      vertex 13.638 61.0332 0
    endloop
  endfacet
  facet normal 0.846723 0.532033 0
    outer loop
      vertex 12.2762 62.395 3
      vertex 11.2517 64.0256 0
      vertex 11.2517 64.0256 3
    endloop
  endfacet
  facet normal 0.846723 0.532033 0
    outer loop
      vertex 11.2517 64.0256 0
      vertex 12.2762 62.395 3
      vertex 12.2762 62.395 0
    endloop
  endfacet
  facet normal 0.943884 0.330278 0
    outer loop
      vertex 11.2517 64.0256 3
      vertex 10.6156 65.8433 0
      vertex 10.6156 65.8433 3
    endloop
  endfacet
  facet normal 0.943884 0.330278 0
    outer loop
      vertex 10.6156 65.8433 0
      vertex 11.2517 64.0256 3
      vertex 11.2517 64.0256 0
    endloop
  endfacet
  facet normal 0.111965 0.993712 -0
    outer loop
      vertex 19 59.157 0
      vertex 17.0863 59.3726 3
      vertex 19 59.157 3
    endloop
  endfacet
  facet normal 0.111965 0.993712 0
    outer loop
      vertex 17.0863 59.3726 3
      vertex 19 59.157 0
      vertex 17.0863 59.3726 0
    endloop
  endfacet
  facet normal -0.988831 0 0.149042
    outer loop
      vertex 25.4987 0 8.08409
      vertex 25.7875 3 10
      vertex 25.4987 3 8.08409
    endloop
  endfacet
  facet normal -0.988831 0 0.149042
    outer loop
      vertex 25.7875 3 10
      vertex 25.4987 0 8.08409
      vertex 25.7875 0 10
    endloop
  endfacet
  facet normal 0.0747298 0 0.997204
    outer loop
      vertex 17.8411 3 3.66297
      vertex 19.7732 0 3.51818
      vertex 19.7732 3 3.51818
    endloop
  endfacet
  facet normal 0.0747298 0 0.997204
    outer loop
      vertex 19.7732 0 3.51818
      vertex 17.8411 3 3.66297
      vertex 17.8411 0 3.66297
    endloop
  endfacet
  facet normal -0.222521 0 -0.974928
    outer loop
      vertex 19.7732 0 16.4818
      vertex 21.6622 3 16.0507
      vertex 21.6622 0 16.0507
    endloop
  endfacet
  facet normal -0.222521 0 -0.974928
    outer loop
      vertex 21.6622 3 16.0507
      vertex 19.7732 0 16.4818
      vertex 19.7732 3 16.4818
    endloop
  endfacet
  facet normal -0.733052 0 0.680172
    outer loop
      vertex 23.3402 0 4.91809
      vertex 24.6581 3 6.33842
      vertex 23.3402 3 4.91809
    endloop
  endfacet
  facet normal -0.733052 0 0.680172
    outer loop
      vertex 24.6581 3 6.33842
      vertex 23.3402 0 4.91809
      vertex 24.6581 0 6.33842
    endloop
  endfacet
  facet normal -0.900969 0 0.433884
    outer loop
      vertex 24.6581 0 6.33842
      vertex 25.4987 3 8.08409
      vertex 24.6581 3 6.33842
    endloop
  endfacet
  facet normal -0.900969 0 0.433884
    outer loop
      vertex 25.4987 3 8.08409
      vertex 24.6581 0 6.33842
      vertex 25.4987 0 8.08409
    endloop
  endfacet
  facet normal -0.5 0 0.866025
    outer loop
      vertex 21.6622 3 3.94932
      vertex 23.3402 0 4.91809
      vertex 23.3402 3 4.91809
    endloop
  endfacet
  facet normal -0.5 0 0.866025
    outer loop
      vertex 23.3402 0 4.91809
      vertex 21.6622 3 3.94932
      vertex 21.6622 0 3.94932
    endloop
  endfacet
  facet normal 0.62349 0 0.781831
    outer loop
      vertex 14.5227 3 5.57888
      vertex 16.0375 0 4.37083
      vertex 16.0375 3 4.37083
    endloop
  endfacet
  facet normal 0.62349 0 0.781831
    outer loop
      vertex 16.0375 0 4.37083
      vertex 14.5227 3 5.57888
      vertex 14.5227 0 5.57888
    endloop
  endfacet
  facet normal 0.365341 0 0.930874
    outer loop
      vertex 16.0375 3 4.37083
      vertex 17.8411 0 3.66297
      vertex 17.8411 3 3.66297
    endloop
  endfacet
  facet normal 0.365341 0 0.930874
    outer loop
      vertex 17.8411 0 3.66297
      vertex 16.0375 3 4.37083
      vertex 16.0375 0 4.37083
    endloop
  endfacet
  facet normal 0.62349 0 -0.781831
    outer loop
      vertex 14.5227 0 14.4211
      vertex 16.0375 3 15.6292
      vertex 16.0375 0 15.6292
    endloop
  endfacet
  facet normal 0.62349 0 -0.781831
    outer loop
      vertex 16.0375 3 15.6292
      vertex 14.5227 0 14.4211
      vertex 14.5227 3 14.4211
    endloop
  endfacet
  facet normal -0.222521 0 0.974928
    outer loop
      vertex 19.7732 3 3.51818
      vertex 21.6622 0 3.94932
      vertex 21.6622 3 3.94932
    endloop
  endfacet
  facet normal -0.222521 0 0.974928
    outer loop
      vertex 21.6622 0 3.94932
      vertex 19.7732 3 3.51818
      vertex 19.7732 0 3.51818
    endloop
  endfacet
  facet normal 0.826239 -0 0.56332
    outer loop
      vertex 13.4312 0 7.17976
      vertex 14.5227 3 5.57888
      vertex 13.4312 3 7.17976
    endloop
  endfacet
  facet normal 0.826239 0 0.56332
    outer loop
      vertex 14.5227 3 5.57888
      vertex 13.4312 0 7.17976
      vertex 14.5227 0 5.57888
    endloop
  endfacet
  facet normal 0.955573 -0 0.294755
    outer loop
      vertex 12.8601 0 9.03123
      vertex 13.4312 3 7.17976
      vertex 12.8601 3 9.03123
    endloop
  endfacet
  facet normal 0.955573 0 0.294755
    outer loop
      vertex 13.4312 3 7.17976
      vertex 12.8601 0 9.03123
      vertex 13.4312 0 7.17976
    endloop
  endfacet
  facet normal 1 -0 0
    outer loop
      vertex 12.8601 0 10.9688
      vertex 12.8601 3 9.03123
      vertex 12.8601 3 10.9688
    endloop
  endfacet
  facet normal 1 0 0
    outer loop
      vertex 12.8601 3 9.03123
      vertex 12.8601 0 10.9688
      vertex 12.8601 0 9.03123
    endloop
  endfacet
  facet normal -0.5 0 -0.866026
    outer loop
      vertex 21.6622 0 16.0507
      vertex 23.3402 3 15.0819
      vertex 23.3402 0 15.0819
    endloop
  endfacet
  facet normal -0.5 0 -0.866026
    outer loop
      vertex 23.3402 3 15.0819
      vertex 21.6622 0 16.0507
      vertex 21.6622 3 16.0507
    endloop
  endfacet
  facet normal -0.988831 0 -0.149042
    outer loop
      vertex 25.7875 0 10
      vertex 25.4987 3 11.9159
      vertex 25.7875 3 10
    endloop
  endfacet
  facet normal -0.988831 -0 -0.149042
    outer loop
      vertex 25.4987 3 11.9159
      vertex 25.7875 0 10
      vertex 25.4987 0 11.9159
    endloop
  endfacet
  facet normal 0.955573 0 -0.294755
    outer loop
      vertex 13.4312 0 12.8202
      vertex 12.8601 3 10.9688
      vertex 13.4312 3 12.8202
    endloop
  endfacet
  facet normal 0.955573 0 -0.294755
    outer loop
      vertex 12.8601 3 10.9688
      vertex 13.4312 0 12.8202
      vertex 12.8601 0 10.9688
    endloop
  endfacet
  facet normal -0.733052 0 -0.680172
    outer loop
      vertex 24.6581 0 13.6616
      vertex 23.3402 3 15.0819
      vertex 24.6581 3 13.6616
    endloop
  endfacet
  facet normal -0.733052 -0 -0.680172
    outer loop
      vertex 23.3402 3 15.0819
      vertex 24.6581 0 13.6616
      vertex 23.3402 0 15.0819
    endloop
  endfacet
  facet normal -0.900969 0 -0.433884
    outer loop
      vertex 25.4987 0 11.9159
      vertex 24.6581 3 13.6616
      vertex 25.4987 3 11.9159
    endloop
  endfacet
  facet normal -0.900969 -0 -0.433884
    outer loop
      vertex 24.6581 3 13.6616
      vertex 25.4987 0 11.9159
      vertex 24.6581 0 13.6616
    endloop
  endfacet
  facet normal 0.0747288 0 -0.997204
    outer loop
      vertex 17.8411 0 16.337
      vertex 19.7732 3 16.4818
      vertex 19.7732 0 16.4818
    endloop
  endfacet
  facet normal 0.0747288 0 -0.997204
    outer loop
      vertex 19.7732 3 16.4818
      vertex 17.8411 0 16.337
      vertex 17.8411 3 16.337
    endloop
  endfacet
  facet normal 0.826239 0 -0.56332
    outer loop
      vertex 14.5227 0 14.4211
      vertex 13.4312 3 12.8202
      vertex 14.5227 3 14.4211
    endloop
  endfacet
  facet normal 0.826239 0 -0.56332
    outer loop
      vertex 13.4312 3 12.8202
      vertex 14.5227 0 14.4211
      vertex 13.4312 0 12.8202
    endloop
  endfacet
  facet normal 0.365341 0 -0.930874
    outer loop
      vertex 16.0375 0 15.6292
      vertex 17.8411 3 16.337
      vertex 17.8411 0 16.337
    endloop
  endfacet
  facet normal 0.365341 0 -0.930874
    outer loop
      vertex 17.8411 3 16.337
      vertex 16.0375 0 15.6292
      vertex 16.0375 3 15.6292
    endloop
  endfacet
endsolid OpenSCAD_Model
