solid OpenSCAD_Model
  facet normal -1 0 0
    outer loop
      vertex 0 0 0
      vertex 0 83.575 20
      vertex 0 83.575 0
    endloop
  endfacet
  facet normal -1 -0 0
    outer loop
      vertex 0 83.575 20
      vertex 0 0 0
      vertex 0 0 20
    endloop
  endfacet
  facet normal 0 0 1
    outer loop
      vertex 38.575 83.575 20
      vertex 35.575 80.575 20
      vertex 38.575 0 20
    endloop
  endfacet
  facet normal 0 0 1
    outer loop
      vertex 38.575 83.575 20
      vertex 3 80.575 20
      vertex 35.575 80.575 20
    endloop
  endfacet
  facet normal 0 0 1
    outer loop
      vertex 3 80.575 20
      vertex 0 83.575 20
      vertex 3 3 20
    endloop
  endfacet
  facet normal -0 0 1
    outer loop
      vertex 0 83.575 20
      vertex 3 80.575 20
      vertex 38.575 83.575 20
    endloop
  endfacet
  facet normal -0 0 1
    outer loop
      vertex 35.575 3 20
      vertex 38.575 0 20
      vertex 35.575 80.575 20
    endloop
  endfacet
  facet normal -0 0 1
    outer loop
      vertex 3 3 20
      vertex 38.575 0 20
      vertex 35.575 3 20
    endloop
  endfacet
  facet normal 0 0 1
    outer loop
      vertex 3 3 20
      vertex 0 0 20
      vertex 38.575 0 20
    endloop
  endfacet
  facet normal 0 0 1
    outer loop
      vertex 0 0 20
      vertex 3 3 20
      vertex 0 83.575 20
    endloop
  endfacet
  facet normal 1 -0 0
    outer loop
      vertex 38.575 0 20
      vertex 38.575 83.575 0
      vertex 38.575 83.575 20
    endloop
  endfacet
  facet normal 1 0 0
    outer loop
      vertex 38.575 83.575 0
      vertex 38.575 0 20
      vertex 38.575 0 0
    endloop
  endfacet
  facet normal 0 1 -0
    outer loop
      vertex 38.575 83.575 0
      vertex 0 83.575 20
      vertex 38.575 83.575 20
    endloop
  endfacet
  facet normal 0 1 0
    outer loop
      vertex 0 83.575 20
      vertex 38.575 83.575 0
      vertex 0 83.575 0
    endloop
  endfacet
  facet normal 0 0 -1
    outer loop
      vertex 26.1722 63.9927 0
      vertex 38.575 83.575 0
      vertex 38.575 0 0
    endloop
  endfacet
  facet normal 0 0 -1
    outer loop
      vertex 38.575 83.575 0
      vertex 26.8646 65.8185 0
      vertex 27.1 67.757 0
    endloop
  endfacet
  facet normal 0 0 -1
    outer loop
      vertex 38.575 83.575 0
      vertex 26.1722 63.9927 0
      vertex 26.8646 65.8185 0
    endloop
  endfacet
  facet normal 0 0 -1
    outer loop
      vertex 38.575 0 0
      vertex 25.0629 62.3857 0
      vertex 26.1722 63.9927 0
    endloop
  endfacet
  facet normal 0 0 -1
    outer loop
      vertex 38.575 0 0
      vertex 23.6013 61.0908 0
      vertex 25.0629 62.3857 0
    endloop
  endfacet
  facet normal 0 0 -1
    outer loop
      vertex 38.575 0 0
      vertex 21.8723 60.1834 0
      vertex 23.6013 61.0908 0
    endloop
  endfacet
  facet normal 0 0 -1
    outer loop
      vertex 38.575 0 0
      vertex 19.9763 59.7161 0
      vertex 21.8723 60.1834 0
    endloop
  endfacet
  facet normal 0 0 -1
    outer loop
      vertex 38.575 0 0
      vertex 18.0237 59.7161 0
      vertex 19.9763 59.7161 0
    endloop
  endfacet
  facet normal 0 0 -1
    outer loop
      vertex 0 0 0
      vertex 18.0237 59.7161 0
      vertex 38.575 0 0
    endloop
  endfacet
  facet normal -0 0 -1
    outer loop
      vertex 18.0237 59.7161 0
      vertex 0 0 0
      vertex 16.1277 60.1834 0
    endloop
  endfacet
  facet normal -0 0 -1
    outer loop
      vertex 16.1277 60.1834 0
      vertex 0 0 0
      vertex 14.3987 61.0908 0
    endloop
  endfacet
  facet normal -0 0 -1
    outer loop
      vertex 14.3987 61.0908 0
      vertex 0 0 0
      vertex 12.9371 62.3857 0
    endloop
  endfacet
  facet normal 0 0 -1
    outer loop
      vertex 11.8278 63.9927 0
      vertex 0 83.575 0
      vertex 11.1354 65.8185 0
    endloop
  endfacet
  facet normal 0 0 -1
    outer loop
      vertex 0 83.575 0
      vertex 11.8278 63.9927 0
      vertex 0 0 0
    endloop
  endfacet
  facet normal -0 0 -1
    outer loop
      vertex 12.9371 62.3857 0
      vertex 0 0 0
      vertex 11.8278 63.9927 0
    endloop
  endfacet
  facet normal 0 0 -1
    outer loop
      vertex 26.8646 69.6955 0
      vertex 38.575 83.575 0
      vertex 27.1 67.757 0
    endloop
  endfacet
  facet normal 0 0 -1
    outer loop
      vertex 26.1722 71.5213 0
      vertex 38.575 83.575 0
      vertex 26.8646 69.6955 0
    endloop
  endfacet
  facet normal 0 0 -1
    outer loop
      vertex 25.0629 73.1283 0
      vertex 38.575 83.575 0
      vertex 26.1722 71.5213 0
    endloop
  endfacet
  facet normal 0 0 -1
    outer loop
      vertex 23.6013 74.4232 0
      vertex 38.575 83.575 0
      vertex 25.0629 73.1283 0
    endloop
  endfacet
  facet normal 0 0 -1
    outer loop
      vertex 21.8723 75.3306 0
      vertex 38.575 83.575 0
      vertex 23.6013 74.4232 0
    endloop
  endfacet
  facet normal 0 0 -1
    outer loop
      vertex 19.9763 75.7979 0
      vertex 38.575 83.575 0
      vertex 21.8723 75.3306 0
    endloop
  endfacet
  facet normal 0 0 -1
    outer loop
      vertex 0 83.575 0
      vertex 19.9763 75.7979 0
      vertex 18.0237 75.7979 0
    endloop
  endfacet
  facet normal 0 0 -1
    outer loop
      vertex 0 83.575 0
      vertex 18.0237 75.7979 0
      vertex 16.1277 75.3306 0
    endloop
  endfacet
  facet normal 0 0 -1
    outer loop
      vertex 11.1354 65.8185 0
      vertex 0 83.575 0
      vertex 10.9 67.757 0
    endloop
  endfacet
  facet normal 0 0 -1
    outer loop
      vertex 19.9763 75.7979 0
      vertex 0 83.575 0
      vertex 38.575 83.575 0
    endloop
  endfacet
  facet normal 0 0 -1
    outer loop
      vertex 14.3987 74.4232 0
      vertex 0 83.575 0
      vertex 16.1277 75.3306 0
    endloop
  endfacet
  facet normal 0 0 -1
    outer loop
      vertex 12.9371 73.1283 0
      vertex 0 83.575 0
      vertex 14.3987 74.4232 0
    endloop
  endfacet
  facet normal 0 0 -1
    outer loop
      vertex 11.8278 71.5213 0
      vertex 0 83.575 0
      vertex 12.9371 73.1283 0
    endloop
  endfacet
  facet normal 0 0 -1
    outer loop
      vertex 11.1354 69.6955 0
      vertex 0 83.575 0
      vertex 11.8278 71.5213 0
    endloop
  endfacet
  facet normal 0 0 -1
    outer loop
      vertex 10.9 67.757 0
      vertex 0 83.575 0
      vertex 11.1354 69.6955 0
    endloop
  endfacet
  facet normal 0 -1 0
    outer loop
      vertex 0 0 20
      vertex 19.2875 0 16.1
      vertex 38.575 0 20
    endloop
  endfacet
  facet normal 0 -1 0
    outer loop
      vertex 0 0 20
      vertex 17.4025 0 15.8014
      vertex 19.2875 0 16.1
    endloop
  endfacet
  facet normal 0 -1 0
    outer loop
      vertex 0 0 20
      vertex 15.702 0 14.935
      vertex 17.4025 0 15.8014
    endloop
  endfacet
  facet normal 0 -1 0
    outer loop
      vertex 0 0 20
      vertex 14.3525 0 13.5855
      vertex 15.702 0 14.935
    endloop
  endfacet
  facet normal 0 -1 0
    outer loop
      vertex 0 0 20
      vertex 13.4861 0 11.885
      vertex 14.3525 0 13.5855
    endloop
  endfacet
  facet normal 0 -1 0
    outer loop
      vertex 0 0 20
      vertex 13.1875 0 10
      vertex 13.4861 0 11.885
    endloop
  endfacet
  facet normal 0 -1 0
    outer loop
      vertex 0 0 0
      vertex 13.1875 0 10
      vertex 0 0 20
    endloop
  endfacet
  facet normal 0 -1 -0
    outer loop
      vertex 13.1875 0 10
      vertex 0 0 0
      vertex 13.4861 0 8.115
    endloop
  endfacet
  facet normal 0 -1 -0
    outer loop
      vertex 13.4861 0 8.115
      vertex 0 0 0
      vertex 14.3525 0 6.41451
    endloop
  endfacet
  facet normal 0 -1 -0
    outer loop
      vertex 17.4025 0 4.19855
      vertex 0 0 0
      vertex 19.2875 0 3.9
    endloop
  endfacet
  facet normal 0 -1 -0
    outer loop
      vertex 15.702 0 5.065
      vertex 0 0 0
      vertex 17.4025 0 4.19855
    endloop
  endfacet
  facet normal 0 -1 -0
    outer loop
      vertex 14.3525 0 6.41451
      vertex 0 0 0
      vertex 15.702 0 5.065
    endloop
  endfacet
  facet normal 0 -1 0
    outer loop
      vertex 21.1725 0 15.8014
      vertex 38.575 0 20
      vertex 19.2875 0 16.1
    endloop
  endfacet
  facet normal 0 -1 0
    outer loop
      vertex 22.873 0 14.935
      vertex 38.575 0 20
      vertex 21.1725 0 15.8014
    endloop
  endfacet
  facet normal 0 -1 0
    outer loop
      vertex 24.2225 0 13.5855
      vertex 38.575 0 20
      vertex 22.873 0 14.935
    endloop
  endfacet
  facet normal 0 -1 0
    outer loop
      vertex 25.0889 0 11.885
      vertex 38.575 0 20
      vertex 24.2225 0 13.5855
    endloop
  endfacet
  facet normal 0 -1 0
    outer loop
      vertex 25.3875 0 10
      vertex 38.575 0 20
      vertex 25.0889 0 11.885
    endloop
  endfacet
  facet normal 0 -1 0
    outer loop
      vertex 38.575 0 0
      vertex 25.3875 0 10
      vertex 25.0889 0 8.115
    endloop
  endfacet
  facet normal 0 -1 0
    outer loop
      vertex 38.575 0 0
      vertex 25.0889 0 8.115
      vertex 24.2225 0 6.41451
    endloop
  endfacet
  facet normal 0 -1 0
    outer loop
      vertex 38.575 0 0
      vertex 24.2225 0 6.41451
      vertex 22.873 0 5.065
    endloop
  endfacet
  facet normal 0 -1 0
    outer loop
      vertex 38.575 0 0
      vertex 19.2875 0 3.9
      vertex 0 0 0
    endloop
  endfacet
  facet normal 0 -1 0
    outer loop
      vertex 25.3875 0 10
      vertex 38.575 0 0
      vertex 38.575 0 20
    endloop
  endfacet
  facet normal 0 -1 0
    outer loop
      vertex 21.1725 0 4.19855
      vertex 38.575 0 0
      vertex 22.873 0 5.065
    endloop
  endfacet
  facet normal 0 -1 0
    outer loop
      vertex 19.2875 0 3.9
      vertex 38.575 0 0
      vertex 21.1725 0 4.19855
    endloop
  endfacet
  facet normal 1 -0 0
    outer loop
      vertex 5 5 19.25
      vertex 5 80.575 17
      vertex 5 80.575 19.25
    endloop
  endfacet
  facet normal 1 0 0
    outer loop
      vertex 5 80.575 17
      vertex 5 5 19.25
      vertex 5 5 17
    endloop
  endfacet
  facet normal -1 0 0
    outer loop
      vertex 33.575 5 17
      vertex 33.575 80.575 19.25
      vertex 33.575 80.575 17
    endloop
  endfacet
  facet normal -1 -0 0
    outer loop
      vertex 33.575 80.575 19.25
      vertex 33.575 5 17
      vertex 33.575 5 19.25
    endloop
  endfacet
  facet normal 0 -1 0
    outer loop
      vertex 3 80.575 3
      vertex 5 80.575 17
      vertex 3 80.575 17
    endloop
  endfacet
  facet normal 0 -1 -0
    outer loop
      vertex 5 80.575 17
      vertex 3 80.575 3
      vertex 33.575 80.575 17
    endloop
  endfacet
  facet normal 0 -1 0
    outer loop
      vertex 35.575 80.575 3
      vertex 33.575 80.575 17
      vertex 3 80.575 3
    endloop
  endfacet
  facet normal 0 -1 0
    outer loop
      vertex 33.575 80.575 17
      vertex 35.575 80.575 3
      vertex 35.575 80.575 17
    endloop
  endfacet
  facet normal 0 -1 0
    outer loop
      vertex 5 80.575 17
      vertex 33.575 80.575 19.25
      vertex 5 80.575 19.25
    endloop
  endfacet
  facet normal 0 -1 -0
    outer loop
      vertex 33.575 80.575 19.25
      vertex 5 80.575 17
      vertex 33.575 80.575 17
    endloop
  endfacet
  facet normal 0 -1 0
    outer loop
      vertex 5 80.575 19.25
      vertex 3 80.575 20
      vertex 3 80.575 19.25
    endloop
  endfacet
  facet normal 0 -1 0
    outer loop
      vertex 3 80.575 20
      vertex 5 80.575 19.25
      vertex 35.575 80.575 20
    endloop
  endfacet
  facet normal 0 -1 0
    outer loop
      vertex 33.575 80.575 19.25
      vertex 35.575 80.575 20
      vertex 5 80.575 19.25
    endloop
  endfacet
  facet normal 0 -1 -0
    outer loop
      vertex 35.575 80.575 20
      vertex 33.575 80.575 19.25
      vertex 35.575 80.575 19.25
    endloop
  endfacet
  facet normal 0 0 1
    outer loop
      vertex 26.8646 65.8185 3
      vertex 35.575 80.575 3
      vertex 27.1 67.757 3
    endloop
  endfacet
  facet normal 0 0 1
    outer loop
      vertex 35.575 80.575 3
      vertex 26.8646 69.6955 3
      vertex 27.1 67.757 3
    endloop
  endfacet
  facet normal 0 0 1
    outer loop
      vertex 35.575 80.575 3
      vertex 26.1722 71.5213 3
      vertex 26.8646 69.6955 3
    endloop
  endfacet
  facet normal 0 0 1
    outer loop
      vertex 35.575 80.575 3
      vertex 25.0629 73.1283 3
      vertex 26.1722 71.5213 3
    endloop
  endfacet
  facet normal 0 0 1
    outer loop
      vertex 35.575 80.575 3
      vertex 23.6013 74.4232 3
      vertex 25.0629 73.1283 3
    endloop
  endfacet
  facet normal 0 0 1
    outer loop
      vertex 35.575 80.575 3
      vertex 21.8723 75.3306 3
      vertex 23.6013 74.4232 3
    endloop
  endfacet
  facet normal 0 0 1
    outer loop
      vertex 35.575 80.575 3
      vertex 19.9763 75.7979 3
      vertex 21.8723 75.3306 3
    endloop
  endfacet
  facet normal -0 0 1
    outer loop
      vertex 3 80.575 3
      vertex 19.9763 75.7979 3
      vertex 35.575 80.575 3
    endloop
  endfacet
  facet normal 0 0 1
    outer loop
      vertex 19.9763 75.7979 3
      vertex 3 80.575 3
      vertex 18.0237 75.7979 3
    endloop
  endfacet
  facet normal 0 0 1
    outer loop
      vertex 11.1354 69.6955 3
      vertex 3 80.575 3
      vertex 10.9 67.757 3
    endloop
  endfacet
  facet normal 0 0 1
    outer loop
      vertex 11.8278 71.5213 3
      vertex 3 80.575 3
      vertex 11.1354 69.6955 3
    endloop
  endfacet
  facet normal 0 0 1
    outer loop
      vertex 12.9371 73.1283 3
      vertex 3 80.575 3
      vertex 11.8278 71.5213 3
    endloop
  endfacet
  facet normal 0 0 1
    outer loop
      vertex 14.3987 74.4232 3
      vertex 3 80.575 3
      vertex 12.9371 73.1283 3
    endloop
  endfacet
  facet normal 0 0 1
    outer loop
      vertex 16.1277 75.3306 3
      vertex 3 80.575 3
      vertex 14.3987 74.4232 3
    endloop
  endfacet
  facet normal 0 0 1
    outer loop
      vertex 18.0237 75.7979 3
      vertex 3 80.575 3
      vertex 16.1277 75.3306 3
    endloop
  endfacet
  facet normal 0 0 1
    outer loop
      vertex 26.1722 63.9927 3
      vertex 35.575 80.575 3
      vertex 26.8646 65.8185 3
    endloop
  endfacet
  facet normal 0 0 1
    outer loop
      vertex 35.575 80.575 3
      vertex 26.1722 63.9927 3
      vertex 35.575 3 3
    endloop
  endfacet
  facet normal -0 0 1
    outer loop
      vertex 25.0629 62.3857 3
      vertex 35.575 3 3
      vertex 26.1722 63.9927 3
    endloop
  endfacet
  facet normal -0 0 1
    outer loop
      vertex 23.6013 61.0908 3
      vertex 35.575 3 3
      vertex 25.0629 62.3857 3
    endloop
  endfacet
  facet normal -0 0 1
    outer loop
      vertex 21.8723 60.1834 3
      vertex 35.575 3 3
      vertex 23.6013 61.0908 3
    endloop
  endfacet
  facet normal -0 0 1
    outer loop
      vertex 19.9763 59.7161 3
      vertex 35.575 3 3
      vertex 21.8723 60.1834 3
    endloop
  endfacet
  facet normal -0 0 1
    outer loop
      vertex 18.0237 59.7161 3
      vertex 35.575 3 3
      vertex 19.9763 59.7161 3
    endloop
  endfacet
  facet normal 0 0 1
    outer loop
      vertex 3 3 3
      vertex 18.0237 59.7161 3
      vertex 16.1277 60.1834 3
    endloop
  endfacet
  facet normal 0 0 1
    outer loop
      vertex 3 3 3
      vertex 16.1277 60.1834 3
      vertex 14.3987 61.0908 3
    endloop
  endfacet
  facet normal 0 0 1
    outer loop
      vertex 3 3 3
      vertex 14.3987 61.0908 3
      vertex 12.9371 62.3857 3
    endloop
  endfacet
  facet normal 0 0 1
    outer loop
      vertex 3 3 3
      vertex 12.9371 62.3857 3
      vertex 11.8278 63.9927 3
    endloop
  endfacet
  facet normal 0 0 1
    outer loop
      vertex 3 80.575 3
      vertex 11.1354 65.8185 3
      vertex 10.9 67.757 3
    endloop
  endfacet
  facet normal 0 0 1
    outer loop
      vertex 3 80.575 3
      vertex 11.8278 63.9927 3
      vertex 11.1354 65.8185 3
    endloop
  endfacet
  facet normal 0 0 1
    outer loop
      vertex 3 3 3
      vertex 11.8278 63.9927 3
      vertex 3 80.575 3
    endloop
  endfacet
  facet normal 0 0 1
    outer loop
      vertex 18.0237 59.7161 3
      vertex 3 3 3
      vertex 35.575 3 3
    endloop
  endfacet
  facet normal 0 1 -0
    outer loop
      vertex 33.575 5 17
      vertex 5 5 19.25
      vertex 33.575 5 19.25
    endloop
  endfacet
  facet normal 0 1 0
    outer loop
      vertex 5 5 19.25
      vertex 33.575 5 17
      vertex 5 5 17
    endloop
  endfacet
  facet normal 1 -0 0
    outer loop
      vertex 3 3 20
      vertex 3 80.575 19.25
      vertex 3 80.575 20
    endloop
  endfacet
  facet normal 1 0 0
    outer loop
      vertex 3 80.575 19.25
      vertex 3 3 20
      vertex 3 3 19.25
    endloop
  endfacet
  facet normal -1 0 0
    outer loop
      vertex 35.575 3 19.25
      vertex 35.575 80.575 20
      vertex 35.575 80.575 19.25
    endloop
  endfacet
  facet normal -1 -0 0
    outer loop
      vertex 35.575 80.575 20
      vertex 35.575 3 19.25
      vertex 35.575 3 20
    endloop
  endfacet
  facet normal 0 0 1
    outer loop
      vertex 5 80.575 19.25
      vertex 3 80.575 19.25
      vertex 5 5 19.25
    endloop
  endfacet
  facet normal 0 0 1
    outer loop
      vertex 33.575 5 19.25
      vertex 35.575 80.575 19.25
      vertex 33.575 80.575 19.25
    endloop
  endfacet
  facet normal 0 0 1
    outer loop
      vertex 35.575 80.575 19.25
      vertex 33.575 5 19.25
      vertex 35.575 3 19.25
    endloop
  endfacet
  facet normal -0 0 1
    outer loop
      vertex 5 5 19.25
      vertex 35.575 3 19.25
      vertex 33.575 5 19.25
    endloop
  endfacet
  facet normal 0 0 1
    outer loop
      vertex 5 5 19.25
      vertex 3 3 19.25
      vertex 35.575 3 19.25
    endloop
  endfacet
  facet normal 0 0 1
    outer loop
      vertex 3 3 19.25
      vertex 5 5 19.25
      vertex 3 80.575 19.25
    endloop
  endfacet
  facet normal 0 1 -0
    outer loop
      vertex 35.575 3 19.25
      vertex 3 3 20
      vertex 35.575 3 20
    endloop
  endfacet
  facet normal 0 1 0
    outer loop
      vertex 3 3 20
      vertex 35.575 3 19.25
      vertex 3 3 19.25
    endloop
  endfacet
  facet normal 1 -0 0
    outer loop
      vertex 3 3 17
      vertex 3 80.575 3
      vertex 3 80.575 17
    endloop
  endfacet
  facet normal 1 0 0
    outer loop
      vertex 3 80.575 3
      vertex 3 3 17
      vertex 3 3 3
    endloop
  endfacet
  facet normal 0 0 -1
    outer loop
      vertex 35.575 3 17
      vertex 33.575 5 17
      vertex 35.575 80.575 17
    endloop
  endfacet
  facet normal 0 0 -1
    outer loop
      vertex 35.575 3 17
      vertex 5 5 17
      vertex 33.575 5 17
    endloop
  endfacet
  facet normal 0 0 -1
    outer loop
      vertex 3 3 17
      vertex 5 5 17
      vertex 35.575 3 17
    endloop
  endfacet
  facet normal 0 0 -1
    outer loop
      vertex 3 80.575 17
      vertex 5 5 17
      vertex 3 3 17
    endloop
  endfacet
  facet normal 0 0 -1
    outer loop
      vertex 5 5 17
      vertex 3 80.575 17
      vertex 5 80.575 17
    endloop
  endfacet
  facet normal -0 0 -1
    outer loop
      vertex 35.575 80.575 17
      vertex 33.575 5 17
      vertex 33.575 80.575 17
    endloop
  endfacet
  facet normal -1 0 0
    outer loop
      vertex 35.575 3 3
      vertex 35.575 80.575 17
      vertex 35.575 80.575 3
    endloop
  endfacet
  facet normal -1 -0 0
    outer loop
      vertex 35.575 80.575 17
      vertex 35.575 3 3
      vertex 35.575 3 17
    endloop
  endfacet
  facet normal 0 1 0
    outer loop
      vertex 35.575 3 17
      vertex 19.2875 3 16.1
      vertex 3 3 17
    endloop
  endfacet
  facet normal 0 1 0
    outer loop
      vertex 35.575 3 17
      vertex 21.1725 3 15.8014
      vertex 19.2875 3 16.1
    endloop
  endfacet
  facet normal 0 1 0
    outer loop
      vertex 35.575 3 17
      vertex 22.873 3 14.935
      vertex 21.1725 3 15.8014
    endloop
  endfacet
  facet normal 0 1 0
    outer loop
      vertex 35.575 3 17
      vertex 24.2225 3 13.5855
      vertex 22.873 3 14.935
    endloop
  endfacet
  facet normal 0 1 0
    outer loop
      vertex 35.575 3 17
      vertex 25.0889 3 11.885
      vertex 24.2225 3 13.5855
    endloop
  endfacet
  facet normal 0 1 0
    outer loop
      vertex 35.575 3 17
      vertex 25.3875 3 10
      vertex 25.0889 3 11.885
    endloop
  endfacet
  facet normal 0 1 -0
    outer loop
      vertex 35.575 3 3
      vertex 25.3875 3 10
      vertex 35.575 3 17
    endloop
  endfacet
  facet normal 0 1 0
    outer loop
      vertex 25.3875 3 10
      vertex 35.575 3 3
      vertex 25.0889 3 8.115
    endloop
  endfacet
  facet normal 0 1 0
    outer loop
      vertex 25.0889 3 8.115
      vertex 35.575 3 3
      vertex 24.2225 3 6.41451
    endloop
  endfacet
  facet normal 0 1 0
    outer loop
      vertex 21.1725 3 4.19855
      vertex 35.575 3 3
      vertex 19.2875 3 3.9
    endloop
  endfacet
  facet normal 0 1 0
    outer loop
      vertex 22.873 3 5.065
      vertex 35.575 3 3
      vertex 21.1725 3 4.19855
    endloop
  endfacet
  facet normal 0 1 0
    outer loop
      vertex 24.2225 3 6.41451
      vertex 35.575 3 3
      vertex 22.873 3 5.065
    endloop
  endfacet
  facet normal 0 1 -0
    outer loop
      vertex 17.4025 3 15.8014
      vertex 3 3 17
      vertex 19.2875 3 16.1
    endloop
  endfacet
  facet normal 0 1 -0
    outer loop
      vertex 15.702 3 14.935
      vertex 3 3 17
      vertex 17.4025 3 15.8014
    endloop
  endfacet
  facet normal 0 1 -0
    outer loop
      vertex 14.3525 3 13.5855
      vertex 3 3 17
      vertex 15.702 3 14.935
    endloop
  endfacet
  facet normal 0 1 -0
    outer loop
      vertex 13.4861 3 11.885
      vertex 3 3 17
      vertex 14.3525 3 13.5855
    endloop
  endfacet
  facet normal 0 1 -0
    outer loop
      vertex 13.1875 3 10
      vertex 3 3 17
      vertex 13.4861 3 11.885
    endloop
  endfacet
  facet normal 0 1 0
    outer loop
      vertex 3 3 3
      vertex 13.1875 3 10
      vertex 13.4861 3 8.115
    endloop
  endfacet
  facet normal 0 1 0
    outer loop
      vertex 3 3 3
      vertex 13.4861 3 8.115
      vertex 14.3525 3 6.41451
    endloop
  endfacet
  facet normal 0 1 0
    outer loop
      vertex 3 3 3
      vertex 14.3525 3 6.41451
      vertex 15.702 3 5.065
    endloop
  endfacet
  facet normal 0 1 0
    outer loop
      vertex 13.1875 3 10
      vertex 3 3 3
      vertex 3 3 17
    endloop
  endfacet
  facet normal 0 1 0
    outer loop
      vertex 17.4025 3 4.19855
      vertex 3 3 3
      vertex 15.702 3 5.065
    endloop
  endfacet
  facet normal 0 1 0
    outer loop
      vertex 19.2875 3 3.9
      vertex 3 3 3
      vertex 17.4025 3 4.19855
    endloop
  endfacet
  facet normal 0 1 0
    outer loop
      vertex 3 3 3
      vertex 19.2875 3 3.9
      vertex 35.575 3 3
    endloop
  endfacet
  facet normal -0.992709 -0.120537 0
    outer loop
      vertex 27.1 67.757 0
      vertex 26.8646 69.6955 3
      vertex 26.8646 69.6955 0
    endloop
  endfacet
  facet normal -0.992709 -0.120537 0
    outer loop
      vertex 26.8646 69.6955 3
      vertex 27.1 67.757 0
      vertex 27.1 67.757 3
    endloop
  endfacet
  facet normal 0.239319 -0.970941 0
    outer loop
      vertex 16.1277 75.3306 0
      vertex 18.0237 75.7979 3
      vertex 16.1277 75.3306 3
    endloop
  endfacet
  facet normal 0.239319 -0.970941 0
    outer loop
      vertex 18.0237 75.7979 3
      vertex 16.1277 75.3306 0
      vertex 18.0237 75.7979 0
    endloop
  endfacet
  facet normal -0.239316 0.970942 0
    outer loop
      vertex 21.8723 60.1834 0
      vertex 19.9763 59.7161 3
      vertex 21.8723 60.1834 3
    endloop
  endfacet
  facet normal -0.239316 0.970942 0
    outer loop
      vertex 19.9763 59.7161 3
      vertex 21.8723 60.1834 0
      vertex 19.9763 59.7161 0
    endloop
  endfacet
  facet normal -0.464722 0.885457 0
    outer loop
      vertex 23.6013 61.0908 0
      vertex 21.8723 60.1834 3
      vertex 23.6013 61.0908 3
    endloop
  endfacet
  facet normal -0.464722 0.885457 0
    outer loop
      vertex 21.8723 60.1834 3
      vertex 23.6013 61.0908 0
      vertex 21.8723 60.1834 0
    endloop
  endfacet
  facet normal -0.663123 -0.748511 0
    outer loop
      vertex 23.6013 74.4232 0
      vertex 25.0629 73.1283 3
      vertex 23.6013 74.4232 3
    endloop
  endfacet
  facet normal -0.663123 -0.748511 -0
    outer loop
      vertex 25.0629 73.1283 3
      vertex 23.6013 74.4232 0
      vertex 25.0629 73.1283 0
    endloop
  endfacet
  facet normal -0.935016 -0.354605 0
    outer loop
      vertex 26.8646 69.6955 0
      vertex 26.1722 71.5213 3
      vertex 26.1722 71.5213 0
    endloop
  endfacet
  facet normal -0.935016 -0.354605 0
    outer loop
      vertex 26.1722 71.5213 3
      vertex 26.8646 69.6955 0
      vertex 26.8646 69.6955 3
    endloop
  endfacet
  facet normal 0.822985 -0.568064 0
    outer loop
      vertex 11.8278 71.5213 3
      vertex 12.9371 73.1283 0
      vertex 12.9371 73.1283 3
    endloop
  endfacet
  facet normal 0.822985 -0.568064 0
    outer loop
      vertex 12.9371 73.1283 0
      vertex 11.8278 71.5213 3
      vertex 11.8278 71.5213 0
    endloop
  endfacet
  facet normal 0.46472 -0.885458 0
    outer loop
      vertex 14.3987 74.4232 0
      vertex 16.1277 75.3306 3
      vertex 14.3987 74.4232 3
    endloop
  endfacet
  facet normal 0.46472 -0.885458 0
    outer loop
      vertex 16.1277 75.3306 3
      vertex 14.3987 74.4232 0
      vertex 16.1277 75.3306 0
    endloop
  endfacet
  facet normal -0.822984 0.568065 0
    outer loop
      vertex 25.0629 62.3857 0
      vertex 26.1722 63.9927 3
      vertex 26.1722 63.9927 0
    endloop
  endfacet
  facet normal -0.822984 0.568065 0
    outer loop
      vertex 26.1722 63.9927 3
      vertex 25.0629 62.3857 0
      vertex 25.0629 62.3857 3
    endloop
  endfacet
  facet normal -0.822985 -0.568064 0
    outer loop
      vertex 26.1722 71.5213 0
      vertex 25.0629 73.1283 3
      vertex 25.0629 73.1283 0
    endloop
  endfacet
  facet normal -0.822985 -0.568064 0
    outer loop
      vertex 25.0629 73.1283 3
      vertex 26.1722 71.5213 0
      vertex 26.1722 71.5213 3
    endloop
  endfacet
  facet normal -0.239318 -0.970941 0
    outer loop
      vertex 19.9763 75.7979 0
      vertex 21.8723 75.3306 3
      vertex 19.9763 75.7979 3
    endloop
  endfacet
  facet normal -0.239318 -0.970941 -0
    outer loop
      vertex 21.8723 75.3306 3
      vertex 19.9763 75.7979 0
      vertex 21.8723 75.3306 0
    endloop
  endfacet
  facet normal 0 -1 0
    outer loop
      vertex 18.0237 75.7979 0
      vertex 19.9763 75.7979 3
      vertex 18.0237 75.7979 3
    endloop
  endfacet
  facet normal 0 -1 -0
    outer loop
      vertex 19.9763 75.7979 3
      vertex 18.0237 75.7979 0
      vertex 19.9763 75.7979 0
    endloop
  endfacet
  facet normal -0.46472 -0.885457 0
    outer loop
      vertex 21.8723 75.3306 0
      vertex 23.6013 74.4232 3
      vertex 21.8723 75.3306 3
    endloop
  endfacet
  facet normal -0.46472 -0.885457 -0
    outer loop
      vertex 23.6013 74.4232 3
      vertex 21.8723 75.3306 0
      vertex 23.6013 74.4232 0
    endloop
  endfacet
  facet normal 0.935016 -0.354605 0
    outer loop
      vertex 11.1354 69.6955 3
      vertex 11.8278 71.5213 0
      vertex 11.8278 71.5213 3
    endloop
  endfacet
  facet normal 0.935016 -0.354605 0
    outer loop
      vertex 11.8278 71.5213 0
      vertex 11.1354 69.6955 3
      vertex 11.1354 69.6955 0
    endloop
  endfacet
  facet normal 0.992709 -0.120537 0
    outer loop
      vertex 10.9 67.757 3
      vertex 11.1354 69.6955 0
      vertex 11.1354 69.6955 3
    endloop
  endfacet
  facet normal 0.992709 -0.120537 0
    outer loop
      vertex 11.1354 69.6955 0
      vertex 10.9 67.757 3
      vertex 10.9 67.757 0
    endloop
  endfacet
  facet normal 0.992709 0.120537 0
    outer loop
      vertex 11.1354 65.8185 3
      vertex 10.9 67.757 0
      vertex 10.9 67.757 3
    endloop
  endfacet
  facet normal 0.992709 0.120537 0
    outer loop
      vertex 10.9 67.757 0
      vertex 11.1354 65.8185 3
      vertex 11.1354 65.8185 0
    endloop
  endfacet
  facet normal 0.663123 -0.748511 0
    outer loop
      vertex 12.9371 73.1283 0
      vertex 14.3987 74.4232 3
      vertex 12.9371 73.1283 3
    endloop
  endfacet
  facet normal 0.663123 -0.748511 0
    outer loop
      vertex 14.3987 74.4232 3
      vertex 12.9371 73.1283 0
      vertex 14.3987 74.4232 0
    endloop
  endfacet
  facet normal -0.992709 0.120536 0
    outer loop
      vertex 26.8646 65.8185 0
      vertex 27.1 67.757 3
      vertex 27.1 67.757 0
    endloop
  endfacet
  facet normal -0.992709 0.120536 0
    outer loop
      vertex 27.1 67.757 3
      vertex 26.8646 65.8185 0
      vertex 26.8646 65.8185 3
    endloop
  endfacet
  facet normal -0.935016 0.354604 0
    outer loop
      vertex 26.1722 63.9927 0
      vertex 26.8646 65.8185 3
      vertex 26.8646 65.8185 0
    endloop
  endfacet
  facet normal -0.935016 0.354604 0
    outer loop
      vertex 26.8646 65.8185 3
      vertex 26.1722 63.9927 0
      vertex 26.1722 63.9927 3
    endloop
  endfacet
  facet normal 0.464722 0.885457 -0
    outer loop
      vertex 16.1277 60.1834 0
      vertex 14.3987 61.0908 3
      vertex 16.1277 60.1834 3
    endloop
  endfacet
  facet normal 0.464722 0.885457 0
    outer loop
      vertex 14.3987 61.0908 3
      vertex 16.1277 60.1834 0
      vertex 14.3987 61.0908 0
    endloop
  endfacet
  facet normal 0.822984 0.568065 0
    outer loop
      vertex 12.9371 62.3857 3
      vertex 11.8278 63.9927 0
      vertex 11.8278 63.9927 3
    endloop
  endfacet
  facet normal 0.822984 0.568065 0
    outer loop
      vertex 11.8278 63.9927 0
      vertex 12.9371 62.3857 3
      vertex 12.9371 62.3857 0
    endloop
  endfacet
  facet normal 0.935016 0.354604 0
    outer loop
      vertex 11.8278 63.9927 3
      vertex 11.1354 65.8185 0
      vertex 11.1354 65.8185 3
    endloop
  endfacet
  facet normal 0.935016 0.354604 0
    outer loop
      vertex 11.1354 65.8185 0
      vertex 11.8278 63.9927 3
      vertex 11.8278 63.9927 0
    endloop
  endfacet
  facet normal 0.663123 0.748511 -0
    outer loop
      vertex 14.3987 61.0908 0
      vertex 12.9371 62.3857 3
      vertex 14.3987 61.0908 3
    endloop
  endfacet
  facet normal 0.663123 0.748511 0
    outer loop
      vertex 12.9371 62.3857 3
      vertex 14.3987 61.0908 0
      vertex 12.9371 62.3857 0
    endloop
  endfacet
  facet normal -0.663123 0.748511 0
    outer loop
      vertex 25.0629 62.3857 0
      vertex 23.6013 61.0908 3
      vertex 25.0629 62.3857 3
    endloop
  endfacet
  facet normal -0.663123 0.748511 0
    outer loop
      vertex 23.6013 61.0908 3
      vertex 25.0629 62.3857 0
      vertex 23.6013 61.0908 0
    endloop
  endfacet
  facet normal 0 1 -0
    outer loop
      vertex 19.9763 59.7161 0
      vertex 18.0237 59.7161 3
      vertex 19.9763 59.7161 3
    endloop
  endfacet
  facet normal 0 1 0
    outer loop
      vertex 18.0237 59.7161 3
      vertex 19.9763 59.7161 0
      vertex 18.0237 59.7161 0
    endloop
  endfacet
  facet normal 0.239317 0.970942 -0
    outer loop
      vertex 18.0237 59.7161 0
      vertex 16.1277 60.1834 3
      vertex 18.0237 59.7161 3
    endloop
  endfacet
  facet normal 0.239317 0.970942 0
    outer loop
      vertex 16.1277 60.1834 3
      vertex 18.0237 59.7161 0
      vertex 16.1277 60.1834 0
    endloop
  endfacet
  facet normal -0.987688 0 0.156435
    outer loop
      vertex 25.0889 0 8.115
      vertex 25.3875 3 10
      vertex 25.0889 3 8.115
    endloop
  endfacet
  facet normal -0.987688 0 0.156435
    outer loop
      vertex 25.3875 3 10
      vertex 25.0889 0 8.115
      vertex 25.3875 0 10
    endloop
  endfacet
  facet normal 0.156435 0 0.987688
    outer loop
      vertex 17.4025 3 4.19855
      vertex 19.2875 0 3.9
      vertex 19.2875 3 3.9
    endloop
  endfacet
  facet normal 0.156435 0 0.987688
    outer loop
      vertex 19.2875 0 3.9
      vertex 17.4025 3 4.19855
      vertex 17.4025 0 4.19855
    endloop
  endfacet
  facet normal 0.987688 0 -0.156434
    outer loop
      vertex 13.4861 0 11.885
      vertex 13.1875 3 10
      vertex 13.4861 3 11.885
    endloop
  endfacet
  facet normal 0.987688 0 -0.156434
    outer loop
      vertex 13.1875 3 10
      vertex 13.4861 0 11.885
      vertex 13.1875 0 10
    endloop
  endfacet
  facet normal -0.707107 0 0.707107
    outer loop
      vertex 22.873 0 5.065
      vertex 24.2225 3 6.41451
      vertex 22.873 3 5.065
    endloop
  endfacet
  facet normal -0.707107 0 0.707107
    outer loop
      vertex 24.2225 3 6.41451
      vertex 22.873 0 5.065
      vertex 24.2225 0 6.41451
    endloop
  endfacet
  facet normal -0.891007 0 0.45399
    outer loop
      vertex 24.2225 0 6.41451
      vertex 25.0889 3 8.115
      vertex 24.2225 3 6.41451
    endloop
  endfacet
  facet normal -0.891007 0 0.45399
    outer loop
      vertex 25.0889 3 8.115
      vertex 24.2225 0 6.41451
      vertex 25.0889 0 8.115
    endloop
  endfacet
  facet normal -0.156434 0 0.987688
    outer loop
      vertex 19.2875 3 3.9
      vertex 21.1725 0 4.19855
      vertex 21.1725 3 4.19855
    endloop
  endfacet
  facet normal -0.156434 0 0.987688
    outer loop
      vertex 21.1725 0 4.19855
      vertex 19.2875 3 3.9
      vertex 19.2875 0 3.9
    endloop
  endfacet
  facet normal 0.45399 0 0.891007
    outer loop
      vertex 15.702 3 5.065
      vertex 17.4025 0 4.19855
      vertex 17.4025 3 4.19855
    endloop
  endfacet
  facet normal 0.45399 0 0.891007
    outer loop
      vertex 17.4025 0 4.19855
      vertex 15.702 3 5.065
      vertex 15.702 0 5.065
    endloop
  endfacet
  facet normal 0.987688 -0 0.156434
    outer loop
      vertex 13.1875 0 10
      vertex 13.4861 3 8.115
      vertex 13.1875 3 10
    endloop
  endfacet
  facet normal 0.987688 0 0.156434
    outer loop
      vertex 13.4861 3 8.115
      vertex 13.1875 0 10
      vertex 13.4861 0 8.115
    endloop
  endfacet
  facet normal -0.453991 0 0.891006
    outer loop
      vertex 21.1725 3 4.19855
      vertex 22.873 0 5.065
      vertex 22.873 3 5.065
    endloop
  endfacet
  facet normal -0.453991 0 0.891006
    outer loop
      vertex 22.873 0 5.065
      vertex 21.1725 3 4.19855
      vertex 21.1725 0 4.19855
    endloop
  endfacet
  facet normal 0.707107 -0 0.707107
    outer loop
      vertex 14.3525 0 6.41451
      vertex 15.702 3 5.065
      vertex 14.3525 3 6.41451
    endloop
  endfacet
  facet normal 0.707107 0 0.707107
    outer loop
      vertex 15.702 3 5.065
      vertex 14.3525 0 6.41451
      vertex 15.702 0 5.065
    endloop
  endfacet
  facet normal 0.891006 -0 0.453991
    outer loop
      vertex 13.4861 0 8.115
      vertex 14.3525 3 6.41451
      vertex 13.4861 3 8.115
    endloop
  endfacet
  facet normal 0.891006 0 0.453991
    outer loop
      vertex 14.3525 3 6.41451
      vertex 13.4861 0 8.115
      vertex 14.3525 0 6.41451
    endloop
  endfacet
  facet normal -0.891007 0 -0.45399
    outer loop
      vertex 25.0889 0 11.885
      vertex 24.2225 3 13.5855
      vertex 25.0889 3 11.885
    endloop
  endfacet
  facet normal -0.891007 -0 -0.45399
    outer loop
      vertex 24.2225 3 13.5855
      vertex 25.0889 0 11.885
      vertex 24.2225 0 13.5855
    endloop
  endfacet
  facet normal -0.156434 0 -0.987688
    outer loop
      vertex 19.2875 0 16.1
      vertex 21.1725 3 15.8014
      vertex 21.1725 0 15.8014
    endloop
  endfacet
  facet normal -0.156434 0 -0.987688
    outer loop
      vertex 21.1725 3 15.8014
      vertex 19.2875 0 16.1
      vertex 19.2875 3 16.1
    endloop
  endfacet
  facet normal 0.891006 0 -0.453991
    outer loop
      vertex 14.3525 0 13.5855
      vertex 13.4861 3 11.885
      vertex 14.3525 3 13.5855
    endloop
  endfacet
  facet normal 0.891006 0 -0.453991
    outer loop
      vertex 13.4861 3 11.885
      vertex 14.3525 0 13.5855
      vertex 13.4861 0 11.885
    endloop
  endfacet
  facet normal -0.453991 0 -0.891006
    outer loop
      vertex 21.1725 0 15.8014
      vertex 22.873 3 14.935
      vertex 22.873 0 14.935
    endloop
  endfacet
  facet normal -0.453991 0 -0.891006
    outer loop
      vertex 22.873 3 14.935
      vertex 21.1725 0 15.8014
      vertex 21.1725 3 15.8014
    endloop
  endfacet
  facet normal -0.707107 0 -0.707107
    outer loop
      vertex 24.2225 0 13.5855
      vertex 22.873 3 14.935
      vertex 24.2225 3 13.5855
    endloop
  endfacet
  facet normal -0.707107 -0 -0.707107
    outer loop
      vertex 22.873 3 14.935
      vertex 24.2225 0 13.5855
      vertex 22.873 0 14.935
    endloop
  endfacet
  facet normal -0.987688 0 -0.156436
    outer loop
      vertex 25.3875 0 10
      vertex 25.0889 3 11.885
      vertex 25.3875 3 10
    endloop
  endfacet
  facet normal -0.987688 -0 -0.156436
    outer loop
      vertex 25.0889 3 11.885
      vertex 25.3875 0 10
      vertex 25.0889 0 11.885
    endloop
  endfacet
  facet normal 0.45399 0 -0.891007
    outer loop
      vertex 15.702 0 14.935
      vertex 17.4025 3 15.8014
      vertex 17.4025 0 15.8014
    endloop
  endfacet
  facet normal 0.45399 0 -0.891007
    outer loop
      vertex 17.4025 3 15.8014
      vertex 15.702 0 14.935
      vertex 15.702 3 14.935
    endloop
  endfacet
  facet normal 0.707107 0 -0.707107
    outer loop
      vertex 15.702 0 14.935
      vertex 14.3525 3 13.5855
      vertex 15.702 3 14.935
    endloop
  endfacet
  facet normal 0.707107 0 -0.707107
    outer loop
      vertex 14.3525 3 13.5855
      vertex 15.702 0 14.935
      vertex 14.3525 0 13.5855
    endloop
  endfacet
  facet normal 0.156434 0 -0.987688
    outer loop
      vertex 17.4025 0 15.8014
      vertex 19.2875 3 16.1
      vertex 19.2875 0 16.1
    endloop
  endfacet
  facet normal 0.156434 0 -0.987688
    outer loop
      vertex 19.2875 3 16.1
      vertex 17.4025 0 15.8014
      vertex 17.4025 3 15.8014
    endloop
  endfacet
endsolid OpenSCAD_Model
